<svg width="64" height="64" viewBox="0 0 64 64" fill="none" xmlns="http://www.w3.org/2000/svg">
<g clip-path="url(#clip0_9328_1336)">
<path fill-rule="evenodd" clip-rule="evenodd" d="M42.25 30.1606C38.1685 30.1606 34.8477 33.481 34.8477 37.563C34.8477 41.644 38.1685 44.9648 42.25 44.9648C46.3315 44.9648 49.6523 41.644 49.6523 37.563C49.6523 33.4814 46.3315 30.1606 42.25 30.1606ZM42.25 42.4648C39.5469 42.4648 37.3477 40.2656 37.3477 37.563C37.3477 34.8599 39.5469 32.6606 42.25 32.6606C44.9531 32.6606 47.1523 34.8599 47.1523 37.563C47.1523 40.2656 44.9531 42.4648 42.25 42.4648Z" fill="black"/>
<path fill-rule="evenodd" clip-rule="evenodd" d="M62.75 0H1.25C0.55957 0 0 0.55957 0 1.25V62.75C0 63.4404 0.55957 64 1.25 64H62.75C63.4404 64 64 63.4404 64 62.75V1.25C64 0.55957 63.4404 0 62.75 0ZM42.25 56.4258L41.1924 54.688C40.8335 54.0977 40.064 53.9111 39.4746 54.27C38.8848 54.6289 38.6978 55.3975 39.0566 55.9873L41 59.1807V61.5H23V43.5H31.4722C31.5562 43.6519 31.6421 43.8027 31.7319 43.9507L33.8574 47.4438C34.2163 48.0337 34.9854 48.2202 35.5752 47.8618C36.165 47.5029 36.3521 46.7339 35.9932 46.144L33.8677 42.6514C32.9375 41.1226 32.4458 39.3628 32.4458 37.563C32.4458 32.1567 36.8438 27.7583 42.25 27.7583C47.6562 27.7583 52.0542 32.1567 52.0542 37.563C52.0542 39.3628 51.5625 41.1226 50.6323 42.6514L42.25 56.4258ZM2.5 23H20.5V41H2.5V23ZM29.9458 37.563C29.9458 38.7329 30.1128 39.8896 30.4351 41H23V23H41V25.3213C34.8003 25.9497 29.9458 31.2002 29.9458 37.563ZM41 20.5H23V2.5H41V20.5ZM43.5 25.3213V23H61.5V41H54.0649C54.3872 39.8896 54.5542 38.7329 54.5542 37.563C54.5542 31.2002 49.6997 25.9497 43.5 25.3213ZM61.5 20.5H43.5V2.5H61.5V20.5ZM20.5 2.5V20.5H2.5V2.5H20.5ZM2.5 43.5H20.5V61.5H2.5V43.5ZM43.5 61.5V59.1807L52.7681 43.9507C52.8584 43.8022 52.9438 43.6519 53.0278 43.5H61.5V61.5H43.5Z" fill="black"/>
<path fill-rule="evenodd" clip-rule="evenodd" d="M37.5249 49.8154C36.8364 49.8154 36.2749 50.377 36.2749 51.0654C36.2749 51.7539 36.8364 52.3159 37.5249 52.3159C38.2134 52.3159 38.7749 51.7539 38.7749 51.0654C38.7749 50.3774 38.2134 49.8154 37.5249 49.8154Z" fill="black"/>
</g>
<defs>
<clipPath id="clip0_9328_1336">
<rect width="64" height="64" fill="white"/>
</clipPath>
</defs>
</svg>
