<svg width="64" height="64" viewBox="0 0 64 64" fill="none" xmlns="http://www.w3.org/2000/svg">
<g clip-path="url(#clip0_9328_1344)">
<path d="M48.5335 0H5.86668C2.92267 0.00346668 0.536792 2.38934 0.533325 5.33336V39.4668C0.533059 41.8995 2.17893 44.0239 4.53441 44.6317L5.06774 42.5666C3.654 42.202 2.66613 40.9268 2.66667 39.4668V5.33336C2.66667 3.56601 4.09934 2.13334 5.86668 2.13334H48.5335C50.3009 2.13334 51.7335 3.56601 51.7335 5.33336V6.40003H53.8669V5.33336C53.8634 2.38934 51.4775 0.00346668 48.5335 0Z" fill="black"/>
<path d="M6.93339 4.2666H4.80005V6.39994H6.93339V4.2666Z" fill="black"/>
<path d="M11.2 4.2666H9.06665V6.39994H11.2V4.2666Z" fill="black"/>
<path d="M15.4667 4.2666H13.3334V6.39994H15.4667V4.2666Z" fill="black"/>
<path d="M63.1544 58.9796L53.037 48.8622C53.5685 47.9136 53.9936 46.909 54.3043 45.867H56.0003V43.7337H54.7629C55.1647 41.1517 54.8549 38.509 53.8669 36.0899V25.6003H51.7336V32.3928C51.1001 31.5836 50.3853 30.8416 49.6002 30.1784V21.3336H47.4669V28.6872C46.7841 28.2915 46.0706 27.9508 45.3335 27.6685V17.0669H43.2002V27.0211C42.4973 26.8693 41.7843 26.7692 41.0669 26.7213V19.2002H38.9335V26.7213C38.2161 26.7692 37.5031 26.8693 36.8002 27.0211V23.4669H34.6668V27.6685C33.9298 27.9508 33.2164 28.2915 32.5335 28.6872V22.4003H30.4002V30.1784C29.6151 30.8416 28.9003 31.5836 28.2668 32.3928V24.5336H26.1335V36.0899C25.1455 38.509 24.8357 41.1517 25.2375 43.7337H11.2001V45.867H25.6961C28.0356 53.758 36.329 58.2583 44.2198 55.9188C45.7748 55.4577 47.2441 54.746 48.5698 53.8116L58.4461 63.6879C58.8627 64.1043 59.5379 64.1043 59.9544 63.6879L63.1544 60.4879C63.5708 60.0713 63.5708 59.3961 63.1544 58.9796ZM40.0002 54.4004C32.934 54.3928 27.2077 48.6665 27.2001 41.6003C27.2001 34.5311 32.931 28.8003 40.0002 28.8003C47.0694 28.8003 52.8002 34.5311 52.8002 41.6003C52.8002 48.6696 47.0694 54.4004 40.0002 54.4004ZM59.2003 61.4255L50.2274 52.4526C50.8088 51.9033 51.3456 51.3088 51.8328 50.6745L60.892 59.7337L59.2003 61.4255Z" fill="black"/>
<path d="M40.0002 30.9336C34.1091 30.9336 29.3335 35.7092 29.3335 41.6003C29.3335 47.4914 34.1091 52.267 40.0002 52.267C45.8913 52.267 50.6669 47.4914 50.6669 41.6003C50.6605 35.7119 45.8886 30.94 40.0002 30.9336ZM40.0002 50.1337C36.9554 50.1298 34.1434 48.5038 32.621 45.867H47.3794C45.857 48.5038 43.045 50.1298 40.0002 50.1337ZM31.7474 43.7336C30.8891 40.4856 32.0351 37.0376 34.6669 34.9496V41.6003H36.8002V33.6952C37.4842 33.4184 38.2014 33.232 38.9335 33.1405V41.6003H41.0669V33.1405C41.799 33.232 42.5162 33.4184 43.2002 33.6952V41.6003H45.3336V34.9496C47.9653 37.0376 49.1113 40.4856 48.253 43.7336H31.7474Z" fill="black"/>
<path d="M54.9336 8.5332H12.2667C9.32269 8.53667 6.93682 10.9225 6.93335 13.8666V48C6.93682 50.944 9.32269 53.3299 12.2667 53.3334H26.1334V51.2H12.2667C10.4994 51.2 9.06669 49.7674 9.06669 48V13.8666C9.06669 12.0992 10.4994 10.6665 12.2667 10.6665H54.9336C56.7009 10.6665 58.1336 12.0992 58.1336 13.8666V48C58.1334 48.7794 57.849 49.5318 57.3336 50.1163L58.9336 51.5275C59.7933 50.5536 60.2674 49.2991 60.2669 48V13.8666C60.2634 10.9225 57.8776 8.53667 54.9336 8.5332Z" fill="black"/>
<path d="M13.3334 12.8003H11.2001V14.9336H13.3334V12.8003Z" fill="black"/>
<path d="M17.6 12.8003H15.4667V14.9336H17.6V12.8003Z" fill="black"/>
<path d="M21.8667 12.8003H19.7334V14.9336H21.8667V12.8003Z" fill="black"/>
<path d="M15.4667 35.2002H13.3334V41.6002H15.4667V35.2002Z" fill="black"/>
<path d="M19.7334 28.8003H17.6001V41.6003H19.7334V28.8003Z" fill="black"/>
<path d="M24 32H21.8667V41.6H24V32Z" fill="black"/>
</g>
<defs>
<clipPath id="clip0_9328_1344">
<rect width="64" height="64" fill="white"/>
</clipPath>
</defs>
</svg>
