<svg width="69" height="64" viewBox="0 0 69 64" fill="none" xmlns="http://www.w3.org/2000/svg">
<path fill-rule="evenodd" clip-rule="evenodd" d="M21.0659 49.0625C27.139 50.9562 31.6785 56.2941 32.3748 62.7753C32.4083 63.0876 32.3069 63.3994 32.0958 63.633C31.8848 63.8666 31.5839 64 31.2681 64H1.11289C0.797107 64 0.496067 63.8665 0.285032 63.6327C0.0739981 63.399 -0.0274152 63.0871 0.00638924 62.7747C0.705988 56.2936 5.24663 50.9556 11.3179 49.0622C8.9661 47.4921 7.41346 44.8218 7.41346 41.8028C7.41346 36.9928 11.3552 33.0676 16.1905 33.0676C21.0304 33.0676 24.9716 36.9929 24.9716 41.8028C24.9716 44.8218 23.419 47.4924 21.0659 49.0625ZM16.1905 50.5381C9.37092 50.5381 3.68565 55.373 2.4072 61.7858H29.9745C28.6994 55.3729 23.0137 50.5381 16.1905 50.5381ZM16.1905 48.324C19.8035 48.324 22.7458 45.3935 22.7458 41.8028C22.7458 38.2121 19.8035 35.2818 16.1905 35.2818C12.5811 35.2818 9.63926 38.2123 9.63926 41.8028C9.63926 45.3934 12.5811 48.324 16.1905 48.324ZM46.7622 0C59.0435 0 69 9.90439 69 22.1215C69 34.3386 59.0435 44.243 46.7622 44.243C44.3986 44.243 42.1263 43.8721 39.9895 43.1984L27.2147 46.6001C26.8307 46.7024 26.421 46.593 26.1399 46.3135C25.8589 46.0338 25.7491 45.6263 25.8519 45.2443C25.8519 45.2443 28.6292 34.9278 28.6292 34.928C26.0446 31.3144 24.5246 26.897 24.5246 22.1215C24.5246 9.90439 34.4809 0 46.7622 0ZM46.7622 2.21417C35.7103 2.21417 26.7504 11.1272 26.7504 22.1215C26.7504 26.5938 28.2313 30.7172 30.7325 34.0391C30.9373 34.3109 31.0052 34.6612 30.9169 34.9891L28.5003 43.9656L39.7325 40.9747C39.9429 40.9187 40.1654 40.9253 40.3721 40.994C42.3809 41.66 44.526 42.0288 46.7622 42.0288C57.8143 42.0288 66.7742 33.1157 66.7742 22.1215C66.7742 11.1272 57.8143 2.21417 46.7622 2.21417ZM50.7595 7.92589C51.877 8.23837 52.9521 8.68134 53.9654 9.24748L56.0219 8.33801C56.4427 8.15188 56.9353 8.2428 57.261 8.56676L60.2992 11.589C60.6244 11.9125 60.7161 12.4018 60.5298 12.8202C60.5298 12.8202 59.6186 14.8665 59.6186 14.8663C60.1883 15.8753 60.634 16.9461 60.9481 18.0613L63.0454 18.8642C63.475 19.0287 63.7585 19.4394 63.7585 19.8975V24.1725C63.7585 24.6306 63.475 25.0413 63.0454 25.2058L60.9476 26.0089C60.6329 27.1205 60.1854 28.1901 59.6181 29.198L60.5298 31.2455C60.7161 31.6639 60.6244 32.1531 60.2992 32.4766L57.261 35.4989C56.9357 35.8225 56.4439 35.9137 56.0233 35.7284L53.967 34.8222C52.9553 35.3885 51.8776 35.8318 50.7591 36.1442L49.9518 38.2308C49.7866 38.6581 49.3737 38.9402 48.9132 38.9402H44.6156C44.1553 38.9402 43.7424 38.6581 43.577 38.2308L42.7698 36.1444C41.6493 35.8313 40.5732 35.3859 39.5595 34.8214L37.5012 35.7284C37.0807 35.9137 36.5888 35.8225 36.2635 35.4989L33.2254 32.4766C32.8998 32.1528 32.8082 31.6626 32.9953 31.244L33.9095 29.1991C33.3406 28.1931 32.8948 27.1215 32.5784 26.0094L30.4792 25.2058C30.0495 25.0413 29.766 24.6306 29.766 24.1725V19.8975C29.766 19.4394 30.0495 19.0287 30.4792 18.8642C30.4792 18.8642 32.578 18.0607 32.578 18.0608C32.8945 16.946 33.3405 15.8757 33.9097 14.8673L32.9953 12.8216C32.8082 12.4029 32.8998 11.9129 33.2254 11.589L36.2635 8.56676C36.5892 8.2428 37.0818 8.15188 37.5026 8.33801L39.5591 9.24761C40.5727 8.6812 41.6482 8.23809 42.7659 7.92562L43.5774 5.83392C43.7429 5.407 44.1555 5.12552 44.6156 5.12552H48.9132C49.3738 5.12552 49.7868 5.40769 49.9521 5.83544L50.7595 7.92589ZM50.524 33.904C51.501 33.5986 52.4375 33.1743 53.3093 32.638C53.6218 32.4457 54.0095 32.4193 54.3454 32.5674L56.2269 33.3963L58.1855 31.448L57.3521 29.5763C57.2041 29.2436 57.2297 28.8598 57.4207 28.5495C58.1123 27.4266 58.6255 26.2051 58.9316 24.9241C59.0164 24.5687 59.272 24.2779 59.6145 24.1468L61.5327 23.4123V20.6576L59.6145 19.9232C59.2717 19.7919 59.016 19.5009 58.9313 19.1452C58.6255 17.8613 58.1172 16.6406 57.4222 15.5186C57.2298 15.2079 57.2036 14.823 57.3521 14.4894L58.1855 12.6177L56.2276 10.6701L54.3468 11.5021C54.0111 11.6505 53.6236 11.6247 53.3108 11.433C52.1828 10.7415 50.9555 10.2358 49.6686 9.93152C49.3113 9.8471 49.0188 9.59261 48.8871 9.25149L48.1486 7.33969H45.379L44.6369 9.25301C44.5049 9.5933 44.2127 9.84724 43.8559 9.93152C42.5691 10.2358 41.3417 10.7415 40.2138 11.433C39.9011 11.6247 39.5133 11.6505 39.1778 11.5021L37.2969 10.6701L35.3398 12.6169L36.1762 14.488C36.3253 14.8219 36.2994 15.2075 36.1067 15.5186C35.411 16.6414 34.9024 17.8634 34.5925 19.1484C34.5069 19.5027 34.2518 19.7923 33.91 19.9232L31.9918 20.6576V23.4123L33.91 24.1468C34.2515 24.2775 34.5067 24.5669 34.5922 24.9209C34.9022 26.2015 35.4104 27.427 36.1058 28.5456C36.2993 28.857 36.3256 29.2432 36.1762 29.5777L35.3398 31.4488L37.2977 33.3963L39.1792 32.5674C39.5136 32.42 39.8995 32.4455 40.2113 32.6356C41.0898 33.1709 42.0284 33.5988 43.0102 33.9057C43.0102 31.5655 43.0102 28.5253 43.0102 28.5253C40.5084 27.1933 38.811 24.5668 38.811 21.5609C38.811 18.4692 40.5851 15.8047 43.1731 14.5006C43.5181 14.3268 43.9291 14.3435 44.2586 14.5449C44.588 14.7464 44.7889 15.1034 44.7889 15.4882V21.6845L46.7671 22.817L48.7454 21.6845V15.4882C48.7454 15.1031 48.9466 14.7457 49.2766 14.5445C49.6065 14.3431 50.0179 14.3269 50.3629 14.5014C52.9394 15.8054 54.7137 18.4695 54.7137 21.5609C54.7137 24.5662 53.0165 27.1921 50.524 28.524V33.904ZM45.236 36.3544C45.3208 36.5734 45.3799 36.726 45.3799 36.726H48.1491L48.2982 36.3405V27.8268C48.2982 27.3807 48.5675 26.9781 48.9811 26.8058C51.0397 25.9478 52.4879 23.9162 52.4879 21.5609C52.4879 20.0655 51.9116 18.7088 50.9712 17.6944V22.3248C50.9712 22.7208 50.7585 23.0867 50.4134 23.2843L47.3222 25.0539C46.9786 25.2505 46.5557 25.2505 46.2121 25.0539L43.1208 23.2843C42.7758 23.0867 42.5631 22.7208 42.5631 22.3248C42.5631 22.3248 42.5631 17.6873 42.5631 17.6872C41.6159 18.7023 41.0368 20.0618 41.0368 21.5609C41.0368 23.9161 42.4852 25.9473 44.5517 26.8051C44.9662 26.9772 45.236 27.3801 45.236 27.8268V36.3544Z" fill="black"/>
</svg>
