<svg width="76" height="64" viewBox="0 0 76 64" fill="none" xmlns="http://www.w3.org/2000/svg">
<path d="M36.4256 47.4829L31.919 43.2049C31.4764 42.7841 31.4585 42.0847 31.8787 41.642C32.299 41.1994 32.9983 41.1815 33.441 41.6017L36.9926 44.9738L43.4114 35.286C43.7487 34.7771 44.4349 34.6378 44.9432 34.9751C45.452 35.3119 45.5913 35.998 45.254 36.5069C45.254 36.5069 38.1122 47.286 38.1082 47.2924C37.7415 47.845 36.9103 47.9486 36.4256 47.4829Z" fill="black"/>
<path d="M37.1673 63.8645C20.7711 56.2058 17.7698 39.5512 17.2517 34.6031C17.1326 33.4599 17.7606 32.3887 18.8146 31.9379C22.0381 30.5593 24.2076 27.5304 24.477 24.0329C24.5633 22.9058 25.478 22.0504 26.6034 22.0435L48.5998 21.9146H48.6119C49.7154 21.9146 50.6525 22.7688 50.748 23.8654C51.0531 27.3611 53.2555 30.3688 56.4945 31.7134C57.5594 32.155 58.2036 33.2204 58.0976 34.3642C57.6377 39.3181 54.8361 56.0176 38.5269 63.857C38.136 64.0447 37.5587 64.0476 37.1673 63.8645ZM26.6765 24.2533C26.3265 28.5533 23.651 32.2735 19.6837 33.9705C19.526 34.0378 19.4322 34.1996 19.45 34.3728C19.9341 39.0015 22.6879 54.5894 37.8344 61.737C52.8945 54.4127 55.4664 38.7937 55.8964 34.1599C55.9126 33.986 55.8124 33.8231 55.6472 33.754C51.665 32.1014 48.9515 28.4157 48.552 24.125L26.6765 24.2533Z" fill="black"/>
<path d="M36.9461 59.3287C32.0026 56.6262 28.0515 52.7171 25.2706 47.5831C22.9635 43.3234 21.9452 39.1513 21.4968 36.4015C21.3754 35.6555 21.7138 34.9216 22.3597 34.5319C25.0185 32.9276 26.9423 30.3977 27.7769 27.4079C27.9962 26.621 28.7198 26.0678 29.5349 26.0632L45.7146 25.9683C46.5332 25.9688 47.2596 26.5076 47.4887 27.2922C48.3585 30.2716 50.3116 32.7791 52.9894 34.3523C53.6393 34.7345 53.9864 35.4638 53.8735 36.211C53.4579 38.9659 52.4886 43.149 50.231 47.4363C47.5106 52.6025 43.6055 56.5577 38.6948 59.3184C38.228 59.5808 37.5586 59.6637 36.9461 59.3287ZM23.7193 36.2904C24.1597 38.8709 25.1216 42.6666 27.214 46.5308C29.7513 51.2153 33.315 54.8313 37.8078 57.2824C42.2718 54.7784 45.7929 51.1203 48.275 46.4065C50.3225 42.5175 51.2395 38.7115 51.6493 36.1269C48.6768 34.3091 46.4877 31.5035 45.4475 28.1804L29.8273 28.2719C28.8269 31.6065 26.6706 34.438 23.7193 36.2904Z" fill="black"/>
<path d="M63.338 49.1827H58.1182C57.5074 49.1827 57.013 48.6883 57.013 48.0775C57.013 47.4673 57.5074 46.9723 58.1182 46.9723H63.338C68.7972 46.9723 73.2382 42.5313 73.2382 37.0721C73.2382 31.6134 68.7972 27.1379 63.338 27.1719C62.0756 27.18 61.9651 26.351 61.9536 24.5914C61.8753 12.2511 51.9135 2.21041 39.5732 2.21041C30.5623 2.21041 22.1133 7.95229 18.781 16.2943C18.6083 16.7266 18.1374 16.9752 17.2084 16.9758C8.93834 16.981 2.21041 23.7043 2.21041 31.9738C2.21041 40.2438 8.93834 46.9723 17.2084 46.9723C17.8191 46.9723 18.3136 47.4673 18.3136 48.0775C18.3136 48.6877 17.8191 49.1827 17.2084 49.1827C7.71973 49.1827 0 41.463 0 31.9738C0 22.5467 7.61957 14.8656 17.0242 14.7666C22.3251 2.01815 34.5589 0 39.5732 0C53.1327 0 64.1646 11.0319 64.1646 24.5914C64.1646 24.7238 64.1628 24.8561 64.1611 24.9891C70.4567 25.4134 75.4486 30.6706 75.4486 37.0721C75.4486 43.7499 70.0158 49.1827 63.338 49.1827Z" fill="black"/>
</svg>
