<svg width="64" height="64" viewBox="0 0 64 64" fill="none" xmlns="http://www.w3.org/2000/svg">
<g clip-path="url(#clip0_9328_1385)">
<path d="M55.6118 20.8893C54.9858 15.6319 52.5796 10.6749 48.8359 6.93127C39.5942 -2.31042 24.5571 -2.31042 15.3154 6.93127C11.5718 10.6749 9.16553 15.6319 8.53955 20.8893C7.91358 26.1466 9.08887 31.5299 11.8486 36.0479L27.2807 61.3106C28.3096 62.9947 30.102 64.0001 32.0757 64.0001C34.0493 64.0001 35.8418 62.9947 36.8706 61.3106L52.3027 36.0479C55.0625 31.5299 56.2378 26.1466 55.6118 20.8893ZM50.1689 34.7442L34.7363 60.0074C34.1655 60.942 33.1709 61.4996 32.0757 61.4996C30.9805 61.4996 29.9853 60.942 29.4145 60.0074L13.9824 34.7442C11.5137 30.7032 10.4624 25.8873 11.022 21.1847C11.582 16.482 13.7344 12.048 17.0835 8.69933C21.2168 4.56604 26.646 2.49963 32.0752 2.49963C37.5049 2.49963 42.9341 4.56604 47.0678 8.69933C50.4165 12.048 52.5688 16.482 53.1289 21.1847C53.6889 25.8873 52.6377 30.7032 50.1689 34.7442Z" fill="black"/>
<path d="M45.668 16.022C45.0776 16.3281 44.8559 17.0591 45.1177 17.6709C45.8725 19.4336 46.2549 21.3091 46.2549 23.2446C46.2549 26.1289 45.3891 28.8144 43.9048 31.0556V20.8247C43.9048 19.0361 42.4546 17.5859 40.666 17.5859C38.8774 17.5859 37.4277 19.0361 37.4277 20.8247V36.3755C36.7476 36.6538 36.0415 36.8803 35.314 37.0512V23.1567C35.314 21.3681 33.8643 19.918 32.0757 19.918C30.2871 19.918 28.8369 21.3681 28.8369 23.1567V37.0512C28.1094 36.8803 27.4033 36.6538 26.7231 36.3755V29.019C26.7231 27.2304 25.2734 25.7807 23.4849 25.7807C21.6963 25.7807 20.2466 27.2304 20.2466 29.019V31.0556C18.7617 28.8144 17.896 26.1289 17.896 23.2446C17.896 15.4263 24.2568 9.06543 32.0757 9.06543C34.8115 9.06543 37.4668 9.8457 39.7544 11.3223C40.3555 11.7104 41.1645 11.5176 41.522 10.8852C41.8496 10.3052 41.6396 9.56152 41.0791 9.20166C38.3935 7.47656 35.2812 6.56543 32.0757 6.56543C22.835 6.56543 15.3252 14.1186 15.3965 23.3755C15.4658 32.4477 22.8731 39.8549 31.9453 39.9243C41.2021 39.9956 48.7554 32.4853 48.7554 23.2451C48.7554 20.9497 48.2973 18.7256 47.394 16.6348C47.1084 15.9731 46.3193 15.6841 45.668 16.022ZM40.666 20.0864C41.0737 20.0864 41.4043 20.417 41.4043 20.8247V33.915C40.938 34.3232 40.4448 34.7011 39.9282 35.0464V20.8247C39.9282 20.417 40.2588 20.0864 40.666 20.0864ZM24.2232 29.019V35.0464C23.7061 34.7011 23.2134 34.3232 22.7471 33.915V29.019C22.7471 28.6113 23.0772 28.2807 23.4849 28.2807C23.8926 28.2807 24.2232 28.6113 24.2232 29.019ZM31.3374 37.4052V23.1567C31.3374 22.749 31.668 22.4189 32.0757 22.4189C32.4829 22.4189 32.8135 22.749 32.8135 23.1567V37.4052C32.5693 37.4179 32.3232 37.4243 32.0757 37.4243C31.8281 37.4243 31.582 37.4179 31.3374 37.4052Z" fill="black"/>
<path d="M36.604 13.0404L34.2886 15.8856C34.1607 16.0424 33.939 16.0873 33.7608 15.9916L29.9058 13.9301C28.6895 13.2797 27.2119 13.5555 26.312 14.5995L20.8584 20.93C20.4077 21.453 20.4663 22.2425 20.9893 22.6932C21.2256 22.8963 21.5157 22.996 21.8047 22.996C22.1563 22.996 22.5054 22.849 22.753 22.5619L28.2066 16.2318C28.3365 16.0804 28.5508 16.0409 28.7266 16.1351L32.5816 18.1966C33.813 18.8553 35.3462 18.5472 36.2276 17.4642L38.5435 14.6185C38.979 14.0834 38.8985 13.2958 38.3628 12.8597C37.8277 12.4237 37.0401 12.5048 36.604 13.0404Z" fill="black"/>
<path d="M44.0347 14.7476C44.7251 14.7476 45.2852 14.1865 45.2852 13.4961C45.2852 12.8052 44.7251 12.2456 44.0347 12.2456C43.3442 12.2456 42.7847 12.8057 42.7847 13.4961V13.499C42.7847 14.1895 43.3442 14.7476 44.0347 14.7476Z" fill="black"/>
</g>
<defs>
<clipPath id="clip0_9328_1385">
<rect width="64" height="64" fill="white"/>
</clipPath>
</defs>
</svg>
