<svg width="64" height="64" viewBox="0 0 64 64" fill="none" xmlns="http://www.w3.org/2000/svg">
<g clip-path="url(#clip0_9328_1436)">
<path d="M34.2137 64H29.7862C28.093 64 26.6307 62.736 26.3849 61.0597L25.8547 57.424C25.8365 57.2994 25.742 57.1975 25.6144 57.165C23.1939 56.5503 20.8775 55.5881 18.7292 54.3049C18.6157 54.2371 18.4768 54.2422 18.3754 54.3179L15.4225 56.518C14.065 57.5313 12.1369 57.3915 10.9382 56.193L7.807 53.0617C6.60838 51.863 6.46888 49.9349 7.48238 48.5768L9.682 45.6249C9.75775 45.5234 9.76287 45.3843 9.695 45.2706C8.412 43.1226 7.44975 40.8062 6.83512 38.3857C6.80262 38.258 6.70063 38.1635 6.57513 38.1451L2.941 37.6152C1.264 37.3691 0 35.907 0 34.2137V29.7862C0 28.093 1.264 26.6309 2.94012 26.3849L6.57587 25.8547C6.7005 25.8365 6.8025 25.7421 6.835 25.6144C7.44975 23.1937 8.412 20.8774 9.695 18.7292C9.76275 18.6157 9.75763 18.4766 9.68188 18.3751L7.48187 15.4228C6.46887 14.0651 6.60838 12.137 7.80688 10.9384L10.9382 7.807C12.1369 6.60838 14.0649 6.46875 15.4231 7.48238L18.375 9.682C18.4769 9.75775 18.6157 9.76287 18.7292 9.695C20.8774 8.41187 23.1937 7.44975 25.6141 6.835C25.742 6.8025 25.8364 6.70063 25.8549 6.57513L26.3848 2.941C26.6308 1.264 28.093 0 29.7862 0H34.2137C35.907 0 37.3692 1.264 37.6151 2.94025L38.1452 6.576C38.1635 6.70063 38.258 6.8025 38.3856 6.835C38.9325 6.97363 39.4738 7.13013 39.9938 7.30013C40.486 7.46088 40.7545 7.99025 40.5936 8.48238C40.4329 8.97463 39.9036 9.24325 39.4114 9.08237C38.9314 8.9255 38.4311 8.78088 37.9248 8.65263C37.0603 8.43313 36.4188 7.72462 36.29 6.8475L35.7599 3.21163C35.6481 2.45 34.9834 1.875 34.2137 1.875H29.7862C29.0166 1.875 28.3519 2.45 28.2401 3.21225L27.7101 6.8465C27.5812 7.7245 26.9398 8.433 26.0755 8.65238C23.8313 9.22238 21.683 10.1148 19.6906 11.3048C18.9229 11.7633 17.9666 11.7163 17.2545 11.1853L14.3022 8.98538C13.6847 8.52475 12.8086 8.58813 12.264 9.13288L9.13275 12.2641C8.58812 12.8087 8.52462 13.6848 8.985 14.3019L11.1855 17.2547C11.7163 17.967 11.7631 18.9233 11.3049 19.6905C10.1148 21.6829 9.22238 23.8311 8.65238 26.0756C8.43313 26.9397 7.72462 27.5812 6.84737 27.71L3.2115 28.2401C2.44987 28.3519 1.875 29.0166 1.875 29.7862V34.2137C1.875 34.9834 2.44987 35.6481 3.21225 35.7599L6.8465 36.2897C7.72462 36.4186 8.43313 37.0601 8.6525 37.9244C9.2225 40.1687 10.1149 42.317 11.3049 44.3092C11.7631 45.0767 11.7164 46.0329 11.1855 46.7451L8.9855 49.6975C8.52463 50.315 8.58825 51.191 9.13288 51.7359L12.2641 54.867C12.8089 55.4116 13.6848 55.4752 14.3018 55.0149L17.2549 52.8145C17.9668 52.2835 18.923 52.2366 19.6906 52.695C21.683 53.8851 23.8313 54.7775 26.0758 55.3475C26.9398 55.5669 27.5812 56.2754 27.71 57.1525L28.2401 60.7884C28.3519 61.55 29.0166 62.125 29.7862 62.125H34.2137C34.9834 62.125 35.6481 61.55 35.7599 60.7878L36.2899 57.1535C36.4188 56.2755 37.0602 55.567 37.9245 55.3476C40.1687 54.7776 42.317 53.8853 44.3094 52.6953C45.0771 52.2368 46.0334 52.2838 46.7455 52.8148L49.6978 55.0146C50.3154 55.4753 51.1914 55.412 51.736 54.8671L54.8672 51.7359C55.4119 51.1912 55.4754 50.3152 55.015 49.6981L52.8145 46.7453C52.2837 46.033 52.2369 45.0768 52.6951 44.3095C53.8853 42.3171 54.7776 40.1689 55.3476 37.9244C55.5669 37.0602 56.2754 36.4188 57.1526 36.29L60.7885 35.7599C61.5501 35.6481 62.125 34.9835 62.125 34.2139V29.7864C62.125 29.0168 61.5501 28.352 60.7878 28.2402L57.1535 27.7104C56.2754 27.5815 55.5669 26.94 55.3475 26.0758C54.7775 23.8314 53.8851 21.6831 52.6951 19.6909C52.2369 18.9234 52.2836 17.9672 52.8145 17.255L55.0145 14.3026C55.4754 13.6851 55.4118 12.8091 54.8671 12.2642L51.7359 9.13313C51.1914 8.58863 50.3154 8.525 49.6982 8.98525L46.7451 11.1856C46.0332 11.7165 45.0769 11.7634 44.3094 11.3051C43.9691 11.1019 43.6265 10.9087 43.2911 10.731C42.8336 10.4887 42.6593 9.92125 42.9016 9.46375C43.1439 9.00625 43.7111 8.83138 44.169 9.07425C44.5325 9.26675 44.9032 9.47575 45.2707 9.69525C45.3842 9.76325 45.5233 9.75813 45.6246 9.68225L48.5775 7.48212C49.9349 6.46887 51.8631 6.60863 53.0617 7.80713L56.193 10.9384C57.3916 12.1371 57.5311 14.0653 56.5176 15.4234L54.318 18.3752C54.2423 18.4767 54.2371 18.6159 54.305 18.7295C55.588 20.8775 56.5503 23.1939 57.1649 25.6144C57.1974 25.7421 57.2994 25.8366 57.4249 25.855L61.059 26.3849C62.736 26.6309 64 28.093 64 29.7862V34.2137C64 35.907 62.736 37.3691 61.0599 37.6151L57.4241 38.1452C57.2995 38.1635 57.1975 38.2579 57.165 38.3856C56.5503 40.8062 55.588 43.1226 54.305 45.2707C54.2373 45.3842 54.2424 45.5234 54.3181 45.6249L56.5181 48.5773C57.5311 49.9349 57.3916 51.863 56.1931 53.0616L53.0617 56.193C51.863 57.3915 49.935 57.531 48.5769 56.5176L45.625 54.318C45.5232 54.2424 45.3844 54.2373 45.2707 54.305C43.1226 55.5881 40.8063 56.5503 38.3859 57.165C38.258 57.1975 38.1636 57.2994 38.1451 57.4249L37.6152 61.059C37.3692 62.736 35.907 64 34.2137 64Z" fill="black"/>
<path d="M52.5852 27.7163C52.1807 27.3933 51.5907 27.459 51.2676 27.8638L49.933 29.5345C48.7255 20.7273 41.1436 13.9199 32.0001 13.9199C27.165 13.9199 22.6198 15.8008 19.202 19.2159C18.8357 19.5819 18.8355 20.1755 19.2015 20.5417C19.5673 20.9082 20.161 20.9083 20.5272 20.5423C23.5911 17.4809 27.6655 15.7949 32.0001 15.7949C40.1775 15.7949 46.9613 21.8678 48.0678 29.735L46.433 28.2465C46.0502 27.8982 45.4572 27.9257 45.1086 28.3087C44.76 28.6914 44.7878 29.2844 45.1707 29.633L48.5323 32.6935C48.7056 32.8513 48.9308 32.9378 49.1635 32.9378C49.1881 32.9378 49.2128 32.9368 49.2376 32.9349C49.496 32.9144 49.7342 32.7879 49.896 32.5854L52.7327 29.034C53.0557 28.6293 52.9897 28.0394 52.5852 27.7163Z" fill="black"/>
<path d="M43.4729 43.4581C40.4091 46.5194 36.3347 48.2054 32.0001 48.2054C23.8227 48.2054 17.0388 42.1326 15.9323 34.2653L17.5672 35.7538C17.9499 36.1022 18.5429 36.0747 18.8916 35.6917C19.2402 35.3089 19.2123 34.7159 18.8294 34.3673L15.4678 31.3068C15.2762 31.1323 15.0213 31.0449 14.7626 31.0654C14.5042 31.0859 14.2659 31.2124 14.1042 31.4149L11.2676 34.9664C10.9444 35.3709 11.0103 35.9608 11.4149 36.2841C11.5877 36.4221 11.7943 36.4891 11.9994 36.4891C12.2747 36.4891 12.5474 36.3684 12.7326 36.1367L14.0672 34.4659C15.2748 43.2732 22.8566 50.0806 32.0001 50.0806C36.8352 50.0806 41.3803 48.1997 44.7982 44.7846C45.1644 44.4186 45.1647 43.8249 44.7987 43.4588C44.4328 43.0922 43.8392 43.0921 43.4729 43.4581Z" fill="black"/>
<path d="M29.3481 39.8611C28.1476 39.8611 26.9472 39.4042 26.0333 38.4904L22.3171 34.7741C21.7277 34.1866 21.4026 33.4016 21.4026 32.5649C21.4026 31.7291 21.7273 30.9442 22.3171 30.3544C22.9071 29.7644 23.6918 29.4395 24.5268 29.4395C25.3618 29.4395 26.1466 29.7645 26.7366 30.3544L29.3493 32.9671L31.3085 31.0092C31.6747 30.643 32.2683 30.6434 32.6342 31.0096C33.0002 31.3759 33.0001 31.9695 32.6338 32.3354L30.4538 34.5141C29.8448 35.123 28.8536 35.123 28.2445 34.514L25.4107 31.6802C24.9233 31.1927 24.1302 31.1927 23.6427 31.6802C23.4071 31.9159 23.2773 32.2299 23.2773 32.5647C23.2773 32.8995 23.4067 33.2129 23.6417 33.4471L27.359 37.1644C28.4557 38.2612 30.2403 38.2612 31.337 37.1644L40.357 28.1444C40.844 27.6574 40.8438 26.8641 40.3565 26.3761C40.121 26.1412 39.807 26.0111 39.4736 26.0111C39.1403 26.0111 38.8267 26.1414 38.5902 26.3779L35.728 29.2414C35.3617 29.6077 34.7682 29.6077 34.4021 29.2417C34.0358 28.8756 34.0357 28.2821 34.4018 27.916L37.2643 25.0522C37.8551 24.4614 38.6396 24.1362 39.4737 24.1362C40.3068 24.1362 41.0911 24.4607 41.682 25.05C42.9007 26.2705 42.9006 28.2529 41.6828 29.4705L32.6628 38.4905C31.749 39.4041 30.5486 39.8611 29.3481 39.8611Z" fill="black"/>
</g>
<defs>
<clipPath id="clip0_9328_1436">
<rect width="64" height="64" fill="white"/>
</clipPath>
</defs>
</svg>
