<svg width="54" height="64" viewBox="0 0 54 64" fill="none" xmlns="http://www.w3.org/2000/svg">
<path d="M26.524 52.9729C25.9279 52.9729 25.6299 52.6749 25.3319 52.0789L14.9012 31.2174C14.6031 30.9194 14.3051 30.3233 14.3051 29.7273C13.4111 28.2372 13.113 26.4491 13.113 24.6609C13.113 17.2104 19.0735 11.25 26.524 11.25C33.9745 11.25 39.9349 17.2104 39.9349 24.6609C39.9349 26.4491 39.6369 27.9392 39.0409 29.4293C39.0409 29.7273 39.0409 29.7273 38.7428 30.0253C38.7428 30.3233 38.4448 30.9194 38.1468 31.2174L27.7161 52.0789C27.418 52.6749 27.12 52.9729 26.524 52.9729ZM26.524 13.9322C20.5636 13.9322 15.7952 18.7005 15.7952 24.6609C15.7952 26.151 16.0932 27.3431 16.6893 28.8332C16.9873 29.4293 16.9873 29.7273 17.2853 30.0253L26.524 48.5026L35.7626 30.0253C36.0607 29.7273 36.0607 29.1313 36.3587 28.8332C36.9547 27.6412 37.2527 26.151 37.2527 24.6609C37.2527 18.7005 32.4844 13.9322 26.524 13.9322Z" fill="black"/>
<path d="M26.5241 29.1317C23.8419 29.1317 21.4578 26.7476 21.4578 24.0654C21.4578 21.3832 23.8419 18.999 26.5241 18.999C29.2063 18.999 31.5905 21.3832 31.5905 24.0654C31.5905 27.0456 29.2063 29.1317 26.5241 29.1317ZM26.5241 21.6812C25.332 21.6812 24.14 22.8733 24.14 24.0654C24.14 25.2575 25.332 26.4495 26.5241 26.4495C27.7162 26.4495 28.9083 25.2575 28.9083 24.0654C28.9083 22.8733 27.7162 21.6812 26.5241 21.6812Z" fill="black"/>
<path d="M26.5239 64C26.2258 64 26.2258 64 26.2258 64C10.4307 58.3376 0 43.4366 0 26.7474V4.99185C0 4.69383 0.298021 4.09779 0.596042 3.79977C0.894063 3.50175 1.4901 3.50175 1.78813 3.50175C4.47031 4.09779 7.1525 4.39581 9.83469 4.39581C16.3912 4.39581 22.3516 2.9057 25.9278 0.223516C26.5239 -0.0745052 27.1199 -0.0745052 27.4179 0.223516C30.9942 2.9057 37.2526 4.39581 43.8091 4.39581C46.4913 4.39581 49.4715 4.09779 51.8556 3.50175C52.1537 3.50175 52.7497 3.50175 53.0477 3.79977C53.3457 4.09779 53.6438 4.39581 53.6438 4.99185V26.7474C53.6438 43.4366 42.915 58.3376 27.4179 64C26.8219 64 26.8219 64 26.5239 64ZM2.38417 6.77998V26.7474C2.38417 42.2445 11.9208 55.9534 26.5239 61.3178C40.8289 55.9534 50.6636 42.2445 50.6636 26.7474V6.77998C48.2794 7.078 46.1932 7.37602 43.5111 7.37602C36.9546 7.37602 30.6962 5.88591 26.5239 3.20373C22.3516 5.88591 16.0931 7.37602 9.53667 7.37602C7.1525 7.37602 4.76834 7.078 2.38417 6.77998Z" fill="black"/>
</svg>
