<svg width="64" height="64" viewBox="0 0 64 64" fill="none" xmlns="http://www.w3.org/2000/svg">
<path fill-rule="evenodd" clip-rule="evenodd" d="M35.8468 64H28.1532C27.6177 64 27.1835 63.5658 27.1835 63.0303V54.7789C22.6855 53.832 18.6675 51.5898 15.5388 48.4612C12.4101 45.3325 10.168 41.3145 9.22115 36.8165H0.969735C0.434216 36.8165 0 36.3823 0 35.8468V28.1532C0 27.6177 0.434216 27.1835 0.969735 27.1835H9.22115C10.168 22.6855 12.4102 18.6675 15.5388 15.5388C18.6674 12.4102 22.6855 10.168 27.1835 9.22115V0.969735C27.1835 0.434216 27.6177 0 28.1532 0H35.8468C36.3823 0 36.8165 0.434216 36.8165 0.969735V9.22115C41.3145 10.168 45.3325 12.4102 48.4612 15.5388C51.5898 18.6674 53.832 22.6855 54.7788 27.1835H63.0303C63.5658 27.1835 64 27.6177 64 28.1532V35.8468C64 36.3823 63.5658 36.8165 63.0303 36.8165H54.7788C53.8319 41.3145 51.5898 45.3325 48.4611 48.4612C45.3325 51.5898 41.3144 53.832 36.8164 54.7789V63.0303C36.8165 63.5658 36.3823 64 35.8468 64ZM39.9759 5.37763C44.4391 6.71264 48.4324 9.14186 51.645 12.3545C54.8579 15.5674 57.2871 19.5609 58.6224 24.0241C58.775 24.5366 59.3144 24.8283 59.8269 24.6757C60.3394 24.5231 60.6311 23.9836 60.4785 23.4711C59.0484 18.6908 56.4504 14.4175 53.0163 10.9834C49.5824 7.54944 45.3093 4.95143 40.5289 3.52154C40.0164 3.36878 39.4769 3.66059 39.3243 4.17308C39.1717 4.68571 39.4634 5.22502 39.9759 5.37763ZM58.6224 39.9757C57.2874 44.439 54.8581 48.4322 51.6455 51.6449C48.4326 54.8577 44.4391 57.2869 39.9759 58.6222C39.4634 58.7748 39.1717 59.3143 39.3243 59.8268C39.4771 60.3393 40.0164 60.6309 40.5289 60.4783C45.3092 59.0483 49.5825 56.4503 53.0166 53.0162C56.4506 49.5823 59.0484 45.3092 60.4783 40.5289C60.6309 40.0164 60.3393 39.4769 59.8268 39.3243C59.3143 39.1716 58.775 39.4632 58.6224 39.9757ZM24.0243 58.6222C19.561 57.2871 15.5675 54.8577 12.3547 51.6449C9.142 48.4322 6.71278 44.439 5.37778 39.9757C5.22502 39.4632 4.68571 39.1716 4.17323 39.3242C3.66074 39.4769 3.36907 40.0162 3.52168 40.5287C4.95158 45.309 7.54944 49.5821 10.9834 53.016C14.4175 56.4501 18.6908 59.0481 23.4711 60.4782C23.9836 60.6309 24.5231 60.3391 24.6757 59.8266C24.8284 59.3141 24.5368 58.7748 24.0243 58.6222ZM5.37792 24.0241C6.71293 19.5609 9.14215 15.5676 12.3548 12.355C15.5676 9.14215 19.5611 6.71293 24.0244 5.37763C24.5369 5.22488 24.8286 4.68557 24.676 4.17308C24.5234 3.66059 23.9839 3.36893 23.4714 3.52154C18.6911 4.95158 14.4178 7.54959 10.9837 10.9837C7.54959 14.4178 4.95158 18.6907 3.52168 23.4711C3.36893 23.9836 3.66074 24.5231 4.17323 24.6757C4.68586 24.8283 5.22517 24.5366 5.37792 24.0241ZM22.7919 32.32L27.7547 37.9231C28.1077 38.3221 28.7169 38.3598 29.1165 38.0081L29.1184 38.0103L41.1252 27.4444C41.5269 27.0909 41.5658 26.4786 41.2123 26.0769C40.8589 25.6752 40.2465 25.6362 39.8448 25.9897L28.5612 35.9194L24.239 31.0397C23.8855 30.6401 23.2749 30.6028 22.8753 30.9563C22.4756 31.3098 22.4383 31.9203 22.7919 32.32ZM32.0001 15.6601C27.4881 15.6601 23.4031 17.489 20.4462 20.4459C17.4893 23.4028 15.6602 27.4878 15.6602 31.9999C15.6602 36.512 17.4892 40.5969 20.446 43.554C23.4031 46.511 27.488 48.3399 31.9999 48.3399C36.5119 48.3399 40.5969 46.511 43.5538 43.554C46.5108 40.5969 48.3398 36.512 48.3398 31.9999C48.3398 27.4878 46.5108 23.4029 43.5538 20.4461C40.5971 17.489 36.512 15.6601 32.0001 15.6601ZM42.1828 21.8172C39.5769 19.2113 35.9768 17.5995 32.0001 17.5995C28.0233 17.5995 24.4232 19.2113 21.8174 21.8172C19.2115 24.4231 17.5997 28.0232 17.5997 31.9999C17.5997 35.9765 19.2115 39.5768 21.8174 42.1826C24.4232 44.7885 28.0233 46.4003 32.0001 46.4003C35.9767 46.4003 39.5769 44.7885 42.1828 42.1826C44.7887 39.5768 46.4005 35.9765 46.4005 31.9999C46.4005 28.0232 44.7887 24.4231 42.1828 21.8172ZM29.1231 62.0605H34.8772V53.9795H34.8785C34.8781 53.5157 35.2116 53.1055 35.6841 53.0249C40.0987 52.2577 44.0495 50.1305 47.0902 47.0899C50.1205 44.0596 52.2435 40.125 53.0173 35.7284C53.0758 35.2487 53.4844 34.8769 53.9799 34.8769H62.061V29.1228H53.9799V29.1215C53.5161 29.1221 53.106 28.7884 53.0254 28.3159C52.2581 23.9013 50.1309 19.9505 47.0904 16.9098C44.06 13.8795 40.1254 11.7565 35.7289 10.9826C35.2492 10.9242 34.8774 10.5156 34.8774 10.0201V1.93932H29.1232V10.0203H29.1219C29.1225 10.4842 28.7889 10.8943 28.3163 10.9749C23.9017 11.7422 19.9509 13.8694 16.9102 16.9099C13.8799 19.9403 11.7569 23.8749 10.9831 28.2714C10.9246 28.7511 10.5161 29.1228 10.0205 29.1228H1.93947V34.8769H10.0205V34.8782C10.4843 34.8778 10.8945 35.2113 10.9751 35.6838C11.7423 40.0984 13.8696 44.0492 16.9102 47.0899C19.9406 50.1203 23.875 52.2432 28.2717 53.0171C28.7514 53.0755 29.1231 53.4841 29.1231 53.9797V62.0605Z" fill="black"/>
</svg>
