<svg width="73" height="64" viewBox="0 0 73 64" fill="none" xmlns="http://www.w3.org/2000/svg">
<path d="M36.7779 30.5232C36.4365 30.5232 36.109 30.6588 35.8675 30.9003C35.626 31.1418 35.4904 31.4693 35.4904 31.8108V33.0983C35.4904 33.4398 35.626 33.7673 35.8675 34.0088C36.109 34.2503 36.4365 34.3859 36.7779 34.3859C37.1194 34.3859 37.4469 34.2503 37.6884 34.0088C37.9299 33.7673 38.0655 33.4398 38.0655 33.0983V31.8108C38.0655 31.4693 37.9299 31.1418 37.6884 30.9003C37.4469 30.6588 37.1194 30.5232 36.7779 30.5232ZM25.1898 43.3989H23.9022C23.5607 43.3989 23.2332 43.5346 22.9918 43.7761C22.7503 44.0175 22.6146 44.345 22.6146 44.6865C22.6146 45.028 22.7503 45.3555 22.9918 45.597C23.2332 45.8384 23.5607 45.9741 23.9022 45.9741H25.1898C25.5313 45.9741 25.8588 45.8384 26.1002 45.597C26.3417 45.3555 26.4774 45.028 26.4774 44.6865C26.4774 44.345 26.3417 44.0175 26.1002 43.7761C25.8588 43.5346 25.5313 43.3989 25.1898 43.3989ZM49.6537 43.3989H48.3661C48.0246 43.3989 47.6971 43.5346 47.4557 43.7761C47.2142 44.0175 47.0785 44.345 47.0785 44.6865C47.0785 45.028 47.2142 45.3555 47.4557 45.597C47.6971 45.8384 48.0246 45.9741 48.3661 45.9741H49.6537C49.9952 45.9741 50.3227 45.8384 50.5641 45.597C50.8056 45.3555 50.9413 45.028 50.9413 44.6865C50.9413 44.345 50.8056 44.0175 50.5641 43.7761C50.3227 43.5346 49.9952 43.3989 49.6537 43.3989ZM56.0916 12.8834C54.6352 12.8838 53.1852 13.0743 51.7782 13.45C50.8124 9.2915 48.35 5.63388 44.8605 3.17442C41.371 0.714963 37.0984 -0.374321 32.8573 0.114241C28.6162 0.602802 24.7033 2.63504 21.8644 5.82351C19.0255 9.01198 17.4593 13.1337 17.4643 17.4028V18.2912C16.6149 18.1336 15.7531 18.0517 14.8892 18.0466C11.1328 17.8588 7.45574 19.1709 4.6668 21.6942C1.87785 24.2175 0.205528 27.7454 0.0177104 31.5018C-0.170107 35.2581 1.14197 38.9352 3.6653 41.7241C6.18863 44.5131 9.71651 46.1854 13.4729 46.3732H13.6016C13.9239 46.3745 14.235 46.2549 14.4734 46.038C14.7118 45.821 14.8602 45.5226 14.8892 45.2015C14.9215 44.8618 14.8175 44.5231 14.6002 44.26C14.383 43.9968 14.0701 43.8307 13.7304 43.7981C10.657 43.6444 7.77055 42.2761 5.70601 39.9943C3.64146 37.7124 2.56795 34.7039 2.72162 31.6305C2.87528 28.5571 4.24355 25.6707 6.52541 23.6061C8.80728 21.5416 11.8158 20.4681 14.8892 20.6218C16.1318 20.6236 17.3662 20.8235 18.5459 21.214C18.7555 21.2853 18.98 21.3013 19.1976 21.2605C19.4152 21.2196 19.6187 21.1234 19.7882 20.981C19.9578 20.8386 20.0878 20.6549 20.1656 20.4476C20.2435 20.2404 20.2665 20.0165 20.2326 19.7977C20.1062 19.0056 20.0416 18.2049 20.0395 17.4028C20.0285 13.6492 21.4435 10.0316 23.9983 7.28157C26.5531 4.53155 30.057 2.85444 33.8012 2.58945C37.5454 2.32446 41.2506 3.49137 44.1672 5.85415C47.0838 8.21694 48.9942 11.5992 49.512 15.3169C49.5409 15.5056 49.6113 15.6855 49.7182 15.8436C49.8251 16.0017 49.9658 16.1341 50.1301 16.2311C50.2936 16.328 50.4765 16.3875 50.6658 16.4053C50.855 16.4231 51.0458 16.3988 51.2245 16.3341C53.0156 15.7232 54.911 15.4774 56.7987 15.6113C58.6864 15.7451 60.5281 16.2559 62.215 17.1135C63.902 17.9711 65.4 19.158 66.6206 20.6042C67.8411 22.0504 68.7595 23.7265 69.3214 25.5336C69.8833 27.3407 70.0774 29.242 69.8921 31.1254C69.7069 33.0087 69.1461 34.8358 68.2429 36.4988C67.3398 38.1618 66.1125 39.6269 64.6335 40.8076C63.1546 41.9883 61.4541 42.8607 59.6324 43.3732C59.4661 43.411 59.309 43.4816 59.1702 43.5806C59.0314 43.6797 58.9137 43.8053 58.8238 43.9503C58.734 44.0952 58.6738 44.2566 58.6469 44.425C58.6199 44.5933 58.6266 44.7654 58.6667 44.9311C58.7087 45.0953 58.7827 45.2496 58.8845 45.3851C58.9862 45.5206 59.1137 45.6347 59.2597 45.7208C59.4056 45.8069 59.5671 45.8634 59.7349 45.887C59.9027 45.9105 60.0735 45.9008 60.2375 45.8582C64.1939 44.8534 67.6468 42.4375 69.9465 39.065C72.2463 35.6925 73.2344 31.5959 72.725 27.5458C72.2156 23.4958 70.2437 19.7714 67.1804 17.0735C64.1171 14.3756 60.1735 12.89 56.0916 12.8963V12.8834ZM48.8039 48.8454C48.6501 48.774 48.4837 48.7336 48.3142 48.7267C48.1448 48.7198 47.9757 48.7464 47.8166 48.805C47.6574 48.8637 47.5115 48.9531 47.387 49.0683C47.2626 49.1835 47.1621 49.3222 47.0914 49.4763C45.9538 51.9088 43.9927 53.8608 41.5548 54.9871C41.2458 55.1323 41.0071 55.3942 40.8912 55.7154C40.7753 56.0365 40.7917 56.3905 40.9368 56.6996C41.0402 56.9231 41.2056 57.1122 41.4133 57.2446C41.621 57.3769 41.8622 57.447 42.1085 57.4464C42.2948 57.445 42.4788 57.4056 42.6493 57.3305C45.6378 55.9402 48.0373 53.5362 49.4219 50.545C49.563 50.2373 49.5772 49.8865 49.4615 49.5684C49.3459 49.2503 49.1096 48.9906 48.8039 48.8454ZM36.7779 54.9871C36.4365 54.9871 36.109 55.1228 35.8675 55.3642C35.626 55.6057 35.4904 55.9332 35.4904 56.2747V57.5622C35.4904 57.9037 35.626 58.2312 35.8675 58.4727C36.109 58.7142 36.4365 58.8498 36.7779 58.8498C37.1194 58.8498 37.4469 58.7142 37.6884 58.4727C37.9299 58.2312 38.0655 57.9037 38.0655 57.5622V56.2747C38.0655 55.9332 37.9299 55.6057 37.6884 55.3642C37.4469 55.1228 37.1194 54.9871 36.7779 54.9871ZM36.7779 25.3729C34.2882 25.3684 31.8216 25.8495 29.516 26.7892C29.1916 26.9173 28.9314 27.169 28.7925 27.4889C28.6537 27.8089 28.6476 28.1709 28.7757 28.4953C28.9037 28.8197 29.1554 29.0799 29.4754 29.2188C29.7953 29.3576 30.1573 29.3637 30.4817 29.2356C34.3264 27.6688 38.6161 27.5867 42.5178 29.0053C46.4196 30.4238 49.655 33.2418 51.5957 36.9119C53.5364 40.582 54.0439 44.8424 53.0197 48.8657C51.9955 52.889 49.5127 56.3882 46.0533 58.6836C42.594 60.9791 38.4051 61.907 34.2999 61.2873C30.1948 60.6675 26.4665 58.5443 23.839 55.3299C21.2114 52.1155 19.8722 48.0394 20.0814 43.893C20.2906 39.7466 22.0332 35.826 24.9709 32.8923C25.0909 32.7731 25.1863 32.6314 25.2516 32.4754C25.3169 32.3193 25.3508 32.1519 25.3514 31.9827C25.352 31.8135 25.3193 31.6459 25.2551 31.4894C25.1909 31.3328 25.0965 31.1905 24.9773 31.0704C24.8581 30.9504 24.7164 30.855 24.5604 30.7897C24.4043 30.7244 24.2369 30.6905 24.0677 30.6899C23.8985 30.6893 23.7309 30.722 23.5744 30.7862C23.4178 30.8504 23.2755 30.9448 23.1554 31.064C20.0032 34.2321 18.0472 38.3953 17.6209 42.8441C17.1946 47.2929 18.3244 51.7519 20.8176 55.4609C23.3108 59.17 27.0132 61.8996 31.2937 63.1845C35.5742 64.4695 40.1678 64.2301 44.2915 62.5073C48.4153 60.7846 51.814 57.685 53.9083 53.7369C56.0025 49.7888 56.6628 45.2366 55.7765 40.8562C54.8902 36.4758 52.5122 32.5383 49.0478 29.715C45.5834 26.8916 41.2471 25.357 36.7779 25.3729ZM26.7606 28.5017C26.5416 28.5017 26.3275 28.5666 26.1454 28.6883C25.9633 28.81 25.8214 28.9829 25.7376 29.1853C25.6538 29.3876 25.6319 29.6102 25.6746 29.825C25.7173 30.0398 25.8228 30.2371 25.9776 30.392C26.1325 30.5469 26.3298 30.6523 26.5446 30.6951C26.7594 30.7378 26.982 30.7159 27.1844 30.632C27.3867 30.5482 27.5596 30.4063 27.6813 30.2242C27.803 30.0421 27.8679 29.828 27.8679 29.609C27.8663 29.4653 27.8363 29.3233 27.7797 29.1912C27.7232 29.059 27.6411 28.9393 27.5383 28.8389C27.4355 28.7384 27.3139 28.6593 27.1804 28.6058C27.047 28.5524 26.9043 28.5258 26.7606 28.5275V28.5017ZM44.6836 37.5147L39.2501 43.7723C39.3327 44.0697 39.3674 44.3782 39.3531 44.6865C39.3945 45.2845 39.226 45.8781 38.8767 46.3652C38.5274 46.8523 38.0191 47.2022 37.4395 47.3548C36.8598 47.5073 36.2451 47.4529 35.7013 47.2008C35.1575 46.9488 34.7186 46.515 34.4603 45.9741H30.0826C29.7411 45.9741 29.4136 45.8384 29.1721 45.597C28.9306 45.3555 28.795 45.028 28.795 44.6865C28.795 44.345 28.9306 44.0175 29.1721 43.7761C29.4136 43.5346 29.7411 43.3989 30.0826 43.3989H34.4603C34.7408 42.9234 35.1601 42.5452 35.6619 42.315C36.1636 42.0848 36.7239 42.0138 37.2672 42.1114L42.7008 35.8537C42.8097 35.7201 42.9444 35.6097 43.0968 35.529C43.2492 35.4484 43.4162 35.3992 43.588 35.3843C43.7598 35.3695 43.9328 35.3893 44.0968 35.4426C44.2608 35.4959 44.4124 35.5816 44.5427 35.6946C44.6729 35.8075 44.7791 35.9456 44.855 36.1004C44.9309 36.2552 44.975 36.4237 44.9845 36.5959C44.9941 36.768 44.9689 36.9403 44.9106 37.1026C44.8523 37.2649 44.762 37.4138 44.645 37.5405L44.6836 37.5147Z" fill="black"/>
</svg>
