<svg width="64" height="64" viewBox="0 0 64 64" fill="none" xmlns="http://www.w3.org/2000/svg">
<path fill-rule="evenodd" clip-rule="evenodd" d="M58.9826 40.1367C58.9829 50.2804 50.7297 58.5331 40.5867 58.5334C40.0508 58.5334 39.6178 58.0996 39.6178 57.5645C39.6178 57.0277 40.0508 56.5947 40.5867 56.5947C49.6612 56.5944 57.0433 49.2112 57.0432 40.1369C57.0432 39.6009 57.4777 39.1671 58.013 39.1671C58.5487 39.1669 58.9826 39.6008 58.9826 40.1367ZM39.6175 51.9787C39.6175 52.5138 40.0505 52.9484 40.5865 52.9484C47.6502 52.9483 53.3969 47.2014 53.3966 40.1369C53.3966 39.6009 52.9636 39.1671 52.4268 39.1671C51.8917 39.1671 51.457 39.6009 51.457 40.1369C51.4572 46.132 46.5807 51.0086 40.5863 51.0088C40.0505 51.0089 39.6175 51.4419 39.6175 51.9787ZM39.6174 46.839C39.6174 47.3749 40.0504 47.8088 40.5863 47.8088C44.8168 47.8086 48.2587 44.3674 48.2586 40.137C48.2586 39.601 47.8239 39.1672 47.2888 39.1672C46.7537 39.1672 46.319 39.601 46.319 40.137C46.3192 43.298 43.748 45.8699 40.5863 45.8699C40.0504 45.8701 39.6174 46.3039 39.6174 46.839ZM24.8314 16.7112C24.8314 17.2463 24.3968 17.681 23.8617 17.681C20.7007 17.6811 18.1297 20.2522 18.1298 23.4139C18.1298 23.949 17.6951 24.3837 17.1592 24.3837C16.6232 24.3837 16.1903 23.9491 16.1903 23.4139C16.1901 19.1836 19.6313 15.7414 23.8617 15.7414C24.3968 15.7414 24.8314 16.1761 24.8314 16.7112ZM24.8313 11.5715C24.8313 11.0364 24.3966 10.6026 23.8615 10.6026C16.7978 10.6027 11.0504 16.3497 11.0505 23.4142C11.0505 23.9493 11.4852 24.384 12.0203 24.384C12.5554 24.384 12.9901 23.9493 12.9901 23.4142C12.9899 17.4199 17.8664 12.5416 23.8617 12.5414C24.3968 12.5413 24.8313 12.1083 24.8313 11.5715ZM5.4655 23.4142C5.4655 23.9493 5.89932 24.384 6.43528 24.384C6.97038 24.384 7.40506 23.9493 7.40506 23.4142C7.40478 14.3391 14.7871 6.9566 23.8614 6.95632C24.3965 6.95632 24.8312 6.52334 24.8312 5.98654C24.8312 5.45144 24.3965 5.01677 23.8614 5.01677C13.7176 5.01705 5.46521 13.2696 5.4655 23.4142ZM62.0419 29.041L60.881 30.202L57.0426 26.3623L58.2502 25.1539L62.0419 28.9463C62.0657 28.9709 62.0657 29.0157 62.0419 29.041ZM58.2553 32.7331C58.2789 32.7576 58.3256 32.7576 58.3501 32.7331L59.5094 31.5721L55.671 27.734L54.4627 28.9416L58.2553 32.7331ZM50.4601 22.5235L54.2992 26.3624L53.0918 27.57L49.2525 23.731L50.4601 22.5235ZM45.643 24.5971C45.4516 24.7886 45.1362 24.7888 44.9445 24.5971L39.4003 19.054C39.2108 18.8646 39.2101 18.5462 39.4003 18.3563L40.2679 17.4895L46.5091 23.7312L45.643 24.5971ZM36.4278 10.907L37.6354 9.69944L41.4753 13.5392L40.2679 14.7468L36.4278 10.907ZM31.2471 5.69643C31.2471 5.67847 31.2519 5.66206 31.265 5.6499L32.4252 4.48888L36.2652 8.3295L35.0576 9.53621L31.265 5.74467C31.252 5.73151 31.2471 5.71595 31.2471 5.69643ZM35.0044 1.93898C34.9873 1.93898 34.9692 1.94549 34.9579 1.9578L33.797 3.11881L37.6354 6.95688L38.8428 5.74933L35.0518 1.95765C35.0386 1.94549 35.0224 1.93898 35.0044 1.93898ZM42.8461 12.1674L44.0535 10.9599L40.2144 7.12096L39.0069 8.32936L42.8461 12.1674ZM47.6632 10.0929C47.8513 9.90482 48.1727 9.90397 48.3617 10.0929L53.9051 15.6369C54.0951 15.8269 54.0966 16.1422 53.9051 16.3338L53.0392 17.2015L46.7971 10.9599L47.6632 10.0929ZM49.0882 21.1517L42.8461 14.9093L41.6386 16.1184L47.8806 22.3593L49.0882 21.1517ZM44.2179 13.5392L50.46 19.7816L51.6674 18.5725L45.4253 12.3317L44.2179 13.5392ZM56.8784 23.7839L53.0393 19.9442L51.8317 21.1517L55.671 24.9915L56.8784 23.7839ZM40.2699 35.1487C41.3418 31.9403 40.5344 28.3684 38.0833 25.9167C35.6306 23.4641 32.0596 22.6572 28.8503 23.7299L40.2699 35.1487ZM30.9503 33.0493L32.5327 30.1547L33.8448 31.4667L30.9503 33.0493ZM63.4128 27.5746L54.4101 18.5724L55.2778 17.7056C56.2245 16.7584 56.2235 15.2117 55.2776 14.2653L49.7333 8.72132C48.7839 7.77276 47.2407 7.7729 46.293 8.72146L45.4253 9.58826L36.4226 0.585174C35.6398 -0.195058 34.3677 -0.195058 33.5859 0.585174L29.8932 4.27812C29.1112 5.06189 29.1122 6.33366 29.8932 7.1163L38.896 16.1168L38.03 16.9845C37.0808 17.9339 37.0808 19.4764 38.0302 20.4248L40.116 22.5122L38.737 23.8896C35.38 21.0726 30.6633 20.5083 26.7042 22.5345C26.1199 22.8331 25.995 23.6167 26.4608 24.0827L31.1024 28.7255L27.663 35.0212C27.1978 35.8703 28.135 36.7954 28.9783 36.3374L35.274 32.8952L39.9171 37.538C40.3818 38.0037 41.1663 37.8797 41.4653 37.2937C43.4906 33.3361 42.9266 28.6181 40.1088 25.2619L41.4871 23.882L43.5746 25.9685C44.5249 26.9184 46.0674 26.916 47.0149 25.9683L47.8809 25.1022L56.8836 34.1045C57.6669 34.886 58.9402 34.8847 59.7218 34.1045L63.413 30.4115C64.1963 29.6283 64.1951 28.3585 63.4128 27.5746ZM5.50411 62.0603C7.01706 60.9181 8.36226 61.4596 9.81537 60.0479C10.5604 59.324 10.8291 58.4229 11.0661 57.628C11.4288 56.4139 11.6902 55.5372 13.4663 55.1173C14.4231 54.891 15.5872 55.3068 16.8201 55.7472C18.7523 56.4374 20.9394 57.2177 23.0571 55.7585C24.5587 54.7242 24.785 53.1473 24.9851 51.7569C25.2227 50.1057 25.4286 48.6792 27.3935 47.6138C27.7023 47.4464 28.0658 47.3271 28.4761 47.2577C31.0007 51.6432 32.5089 56.6848 32.6701 62.0597L5.50411 62.0603ZM1.93985 42.8129L1.94027 62.0605H2.78996C5.33267 58.8265 7.29162 59.7937 8.46311 58.6576C9.63757 57.5185 8.86341 54.213 13.0202 53.2294C16.247 52.4658 19.5275 55.8367 21.9573 54.1614C22.7211 53.6345 22.8698 52.8402 23.0652 51.4801C23.3249 49.6803 23.6468 47.44 26.4679 45.909C26.7579 45.7521 27.0692 45.6246 27.4017 45.5225C26.0104 43.4294 24.3763 41.5095 22.5414 39.8029C22.2432 41.0284 21.6843 41.9753 20.8723 42.6239C18.3336 44.6536 16.1028 42.9285 14.1231 43.0261C12.9404 43.0844 11.6298 43.9779 10.3984 43.9779C8.10665 43.9779 5.25855 40.2418 1.93985 42.8129ZM20.8206 38.3141C20.7038 39.6459 20.3149 40.5862 19.6606 41.1099C18.6908 41.8852 17.9205 41.7497 16.5323 41.4188C14.4554 40.9251 13.7101 40.9345 11.6851 41.6762C11.1621 41.8675 10.5699 42.0832 10.3076 42.0309C8.83965 41.7358 5.62364 38.7518 1.93985 40.536L1.93957 31.3294C9.0712 31.5448 15.6178 34.1264 20.8206 38.3141ZM0.969783 29.376C19.5674 29.3756 34.6248 44.432 34.6252 63.0294C34.6252 63.5645 34.1913 63.9991 33.6554 63.9991L0.970632 64C0.435525 64 0.000848775 63.5653 0.000848775 63.0302L0 30.3458C0 29.8098 0.434535 29.376 0.969783 29.376Z" fill="black"/>
</svg>
