<svg width="64" height="64" viewBox="0 0 64 64" fill="none" xmlns="http://www.w3.org/2000/svg">
<path fill-rule="evenodd" clip-rule="evenodd" d="M6.81263 19.2135C6.95488 18.7332 7.4595 18.4587 7.9395 18.6011C9.26873 18.9943 10.755 19.3306 12.3574 19.601C12.8513 19.6843 13.1843 20.1521 13.1008 20.646C13.0262 21.0888 12.6422 21.4022 12.2077 21.4022C12.1575 21.4022 12.1069 21.398 12.0557 21.3893C10.3817 21.107 8.82371 20.754 7.42504 20.3402C6.94465 20.1983 6.67051 19.6937 6.81263 19.2135ZM7.42504 34.0658C8.82358 34.4794 10.3815 34.8325 12.0557 35.1149C12.1068 35.1234 12.1574 35.1277 12.2077 35.1277C12.6422 35.1277 13.0261 34.8143 13.1008 34.3715C13.1843 33.8776 12.8513 33.4097 12.3574 33.3265C10.755 33.0561 9.2686 32.7197 7.9395 32.3265C7.4595 32.1847 6.95475 32.4588 6.81263 32.939C6.67051 33.419 6.94465 33.9235 7.42504 34.0658ZM12.3574 47.0515C10.755 46.7813 9.2686 46.4448 7.93963 46.0516C7.4595 45.9094 6.95475 46.1836 6.81276 46.6639C6.67051 47.1442 6.94478 47.6488 7.42504 47.7908C8.82371 48.2047 10.3816 48.5577 12.0558 48.84C12.107 48.8486 12.1577 48.8529 12.2078 48.8529C12.6423 48.8529 13.0262 48.5395 13.101 48.0966C13.1841 47.6027 12.8513 47.1348 12.3574 47.0515ZM64 32.2477V45.5513C64 54.7889 54.7666 62.1831 48.1013 63.9692C48.0245 63.9898 47.9456 64 47.8666 64C47.7875 64 47.7086 63.9898 47.6318 63.9692C43.5096 62.8646 38.4061 59.6146 35.111 55.1106C31.3432 56.0179 26.8714 56.4967 22.1259 56.4967C11.3999 56.4967 0 53.812 0 48.8361V7.66044C0 2.68476 11.3999 0 22.1261 0C32.8523 0 44.2522 2.68489 44.2522 7.66044V27.1418H52.3273C52.5161 27.1418 52.7004 27.2008 52.854 27.3105C55.1654 28.9601 58.8304 30.9989 63.1649 31.3438C63.6365 31.3812 64 31.7748 64 32.2477ZM1.81377 7.66044C1.81377 8.97697 3.9531 10.4758 7.39692 11.5718C11.3183 12.8198 16.5492 13.5071 22.1261 13.5071C27.7031 13.5071 32.9341 12.8198 36.8553 11.5718C40.2991 10.4758 42.4385 8.97697 42.4385 7.66044C42.4385 6.3439 40.2991 4.84521 36.8553 3.74905C32.9341 2.50105 27.7032 1.81377 22.1261 1.81377C16.5491 1.81377 11.3182 2.50105 7.39692 3.74905C3.9531 4.84521 1.81377 6.3439 1.81377 7.66044ZM1.81377 21.3857C1.81377 22.7023 3.9531 24.2011 7.39692 25.2971C11.3183 26.5451 16.5492 27.2324 22.1261 27.2324C27.7031 27.2324 32.9341 26.5451 36.8553 25.2971C40.2991 24.2011 42.4385 22.7023 42.4385 21.3857V10.8486C38.803 13.7724 30.2711 15.321 22.1261 15.321C13.9811 15.321 5.4492 13.7724 1.81377 10.8486V21.3857ZM1.81377 35.111C1.81377 36.4275 3.9531 37.9262 7.39692 39.0224C11.3183 40.2704 16.5492 40.9577 22.1261 40.9577C25.4796 40.9577 28.7824 40.701 31.7331 40.2145V32.2476C31.7331 31.7747 32.0966 31.3811 32.5681 31.3435C36.6368 31.0198 40.1153 29.2036 42.4385 27.6177V24.5739C38.803 27.4977 30.2711 29.0463 22.1261 29.0463C13.9811 29.0463 5.4492 27.4977 1.81377 24.5739V35.111ZM34.0422 53.4952C32.6202 51.0988 31.7331 48.4137 31.7331 45.5513V42.0519C28.7615 42.5232 25.4655 42.7716 22.1261 42.7716C13.9811 42.7716 5.4492 41.223 1.81377 38.2992V48.8361C1.81377 50.1527 3.9531 51.6514 7.39692 52.7475C11.3183 53.9955 16.5492 54.6828 22.1261 54.6828C26.3955 54.6829 30.5695 54.2634 34.0422 53.4952ZM62.1862 33.0657C58.7748 32.6347 55.289 31.2242 52.0395 28.9556H43.6937C40.4442 31.2242 36.9584 32.6347 33.547 33.0657V45.5513C33.547 53.6637 41.9292 60.4439 47.8667 62.152C53.8042 60.4439 62.1862 53.6637 62.1862 45.5513V33.0657ZM51.7323 30.8233C54.3332 32.536 57.0371 33.7305 59.769 34.3737C60.1785 34.4701 60.4681 34.8356 60.4681 35.2564V45.5512C60.4681 48.5322 59.0409 51.7524 56.4494 54.6186C54.1367 57.1764 51.117 59.2312 48.1641 60.2565C48.0678 60.2899 47.9672 60.3067 47.8667 60.3067C47.7662 60.3067 47.6656 60.2899 47.5692 60.2565C44.6164 59.2315 41.5964 57.1765 39.2838 54.6186C36.6925 51.7524 35.2653 48.5322 35.2653 45.5512V35.2564C35.2653 34.8356 35.5547 34.4701 35.9644 34.3737C38.6962 33.7305 41.4001 32.5358 44.001 30.8233C44.1491 30.7258 44.3225 30.6739 44.4998 30.6739H51.2337C51.4108 30.6739 51.5843 30.7258 51.7323 30.8233ZM58.6542 35.9633C56.0346 35.2622 53.452 34.0952 50.964 32.4876H44.7694C42.2812 34.0952 39.6985 35.2622 37.0792 35.9633V45.5513C37.0792 50.9198 42.6008 56.4753 47.8668 58.4361C53.1327 56.4752 58.6544 50.9196 58.6544 45.5513V35.9633H58.6542ZM47.8667 33.8574C50.5112 33.8574 52.6627 36.0088 52.6627 38.6533V40.774H53.6311C54.132 40.774 54.538 41.18 54.538 41.6808V48.1406C54.538 51.8191 51.5453 54.8117 47.8668 54.8117C44.1884 54.8117 41.1955 51.819 41.1955 48.1406V41.6808C41.1955 41.18 41.6016 40.774 42.1024 40.774H43.071V38.6533C43.0707 36.0089 45.2222 33.8574 47.8667 33.8574ZM52.7241 42.5877H43.0092V48.1406C43.0092 50.819 45.1881 52.998 47.8667 52.998C50.5451 52.998 52.7241 50.819 52.7241 48.1406V42.5877ZM47.8667 35.6712C46.2224 35.6712 44.8845 37.0088 44.8845 38.6533V40.774H50.8488V38.6533C50.8488 37.0088 49.511 35.6712 47.8667 35.6712ZM46.9598 47.3657V49.4673C46.9598 49.9682 47.3658 50.3742 47.8667 50.3742C48.3675 50.3742 48.7736 49.9682 48.7736 49.4673V47.3657C49.1416 47.089 49.3814 46.65 49.3814 46.1559C49.3814 45.3216 48.701 44.6412 47.8667 44.6412C47.0324 44.6412 46.3519 45.3217 46.3519 46.1559C46.3518 46.65 46.5916 47.0888 46.9598 47.3657Z" fill="black"/>
</svg>
