<svg width="23" height="16" viewBox="0 0 23 16" fill="none" xmlns="http://www.w3.org/2000/svg">
<path d="M13.3333 15.6842C13.1228 15.4737 13.0175 15.2221 13.0175 14.9297C13.0175 14.6375 13.1111 14.3977 13.2982 14.2105L18.4561 9.05261L1.05263 9.05261C0.748545 9.05261 0.497093 8.9532 0.298252 8.75436C0.0994313 8.55554 0 8.30406 0 7.99998C0 7.6959 0.0994313 7.44442 0.298252 7.2456C0.497093 7.04676 0.748545 6.94735 1.05263 6.94735L18.4561 6.94735L13.2631 1.75437C13.0526 1.54385 12.9532 1.29825 12.9649 1.01753C12.9766 0.73684 13.0877 0.49122 13.2982 0.280694C13.5087 0.0935574 13.7602 0 14.0526 0C14.345 0 14.5848 0.0935574 14.7719 0.280694L21.7544 7.26314C21.8713 7.38011 21.9532 7.49705 21.9999 7.61402C22.0466 7.73097 22.0702 7.85962 22.0702 7.99998C22.0702 8.14034 22.0466 8.26899 21.9999 8.38594C21.9532 8.5029 21.8713 8.61987 21.7544 8.73682L14.8071 15.6842C14.5965 15.8947 14.3508 16 14.0702 16C13.7894 16 13.5438 15.8947 13.3333 15.6842Z" fill="#474747"/>
</svg>
