<svg width="64" height="64" viewBox="0 0 64 64" fill="none" xmlns="http://www.w3.org/2000/svg">
<g clip-path="url(#clip0_9328_1430)">
<path d="M59.8444 16.5353H56.0316L57.1495 5.24256C57.2598 4.12823 56.443 3.13192 55.3286 3.0216L51.9264 2.68489C50.7459 2.56699 50.5657 4.39375 51.7457 4.51056L55.1477 4.84727C55.2555 4.85791 55.3344 4.95428 55.3237 5.06191L53.4046 24.449H51.891L51.3085 13.7874C51.2483 12.6821 50.2764 11.8081 49.17 11.8703L43.9862 12.1535L43.2957 7.23407C43.1417 6.13649 42.0995 5.35153 41.0023 5.50515L24.003 7.89134L24.5924 1.93724C24.5986 1.87461 24.6561 1.82997 24.721 1.83535L46.708 4.01179C47.8886 4.12945 48.0688 2.30293 46.8888 2.18613L24.9018 0.00969006C23.8289 -0.0968386 22.8726 0.687266 22.7668 1.75647L22.1335 8.15381L10.7237 9.75541C9.65755 9.90511 8.91173 10.8925 9.06094 11.9566L9.70366 16.5355H4.15561C2.24445 16.5355 0.689697 18.0922 0.689697 20.0056V60.5301C0.689697 62.4436 2.24445 64.0002 4.15561 64.0002H10.3519C11.5379 64.0002 11.5379 62.1656 10.3519 62.1656H4.15561C3.25605 62.1656 2.52429 61.4318 2.52429 60.5301V20.0055C2.52429 19.1036 3.25605 18.3699 4.15561 18.3699H12.5352L14.879 25.6475C15.0011 26.0267 15.3538 26.2836 15.7522 26.2836H61.4759V60.5298C61.4759 61.4317 60.7441 62.1653 59.8445 62.1653H15.7334C14.5474 62.1653 14.5474 63.9999 15.7334 63.9999H59.8444C61.7556 63.9999 63.3103 62.4432 63.3103 60.5298V20.0055C63.3103 18.092 61.7556 16.5353 59.8444 16.5353ZM49.2703 13.7021C49.3903 13.7068 49.4593 13.7685 49.4769 13.8874L50.0538 24.449H19.1179L18.6286 15.49C18.6323 15.4195 18.6694 15.3794 18.7403 15.3696L49.2703 13.7021ZM14.0804 17.1834C13.9638 16.8048 13.5998 16.5355 13.2035 16.5355H11.5562L10.8777 11.7017C10.869 11.6394 10.9142 11.5813 10.9787 11.5723L22.8379 9.90756C22.8523 9.90964 22.8664 9.91257 22.8811 9.91404C22.9117 9.9171 22.9422 9.91857 22.9725 9.91857C23.1066 9.91857 23.2346 9.88848 23.3508 9.83552L41.2575 7.32201C41.3775 7.3165 41.4514 7.37215 41.4792 7.48908L42.1481 12.2539L18.6403 13.5379C17.5783 13.5958 16.7388 14.5267 16.7969 15.59L17.2808 24.4492H16.4206L14.0804 17.1834ZM55.2483 24.4492L55.85 18.37H59.8444C60.744 18.37 61.4757 19.1038 61.4757 20.0056V24.4493L55.2483 24.4492Z" fill="black"/>
<path d="M48.9487 54.8189C49.4553 54.8189 49.866 54.4082 49.866 53.9016V45.5257C49.866 45.0191 49.4553 44.6084 48.9487 44.6084H15.0512C14.5446 44.6084 14.1339 45.0191 14.1339 45.5257V53.9016C14.1339 54.4082 14.5446 54.8189 15.0512 54.8189H48.9487ZM15.9685 46.443H48.0314V52.9843H15.9685V46.443Z" fill="black"/>
<path d="M43.2142 48.7964H20.7857C19.5997 48.7964 19.5997 50.631 20.7857 50.631H43.2142C44.4004 50.631 44.4004 48.7964 43.2142 48.7964Z" fill="black"/>
</g>
<defs>
<clipPath id="clip0_9328_1430">
<rect width="64" height="64" fill="white"/>
</clipPath>
</defs>
</svg>
