<?xml version="1.0" encoding="UTF-8"?>
<svg width="204px" height="53px" viewBox="0 0 204 53" version="1.1" xmlns="http://www.w3.org/2000/svg" xmlns:xlink="http://www.w3.org/1999/xlink">
    <title>logo-megaview-dd-w</title>
    <g id="Page-1" stroke="none" stroke-width="1" fill="none" fill-rule="evenodd">
        <g id="logo-megaview-dd-w" fill="#FFFFFF" fill-rule="nonzero">
            <path d="M142.8,49.5291 L142.8,36.2 L146.058,36.2 C147.188,36.2 148.066,36.3481 148.691,36.6443 C149.327,36.9295 149.777,37.3848 150.04,38.0101 C150.304,38.6244 150.435,39.4143 150.435,40.3797 L150.435,45.2341 C150.435,46.2215 150.304,47.0333 150.04,47.6696 C149.777,48.3059 149.333,48.7776 148.708,49.0848 C148.093,49.381 147.232,49.5291 146.124,49.5291 L142.8,49.5291 Z M145.515,47.6367 L146.091,47.6367 C146.596,47.6367 146.952,47.5599 147.161,47.4063 C147.38,47.2417 147.517,47.0059 147.572,46.6987 C147.627,46.3805 147.654,45.9911 147.654,45.5303 L147.654,40.0341 C147.654,39.5734 147.616,39.2059 147.539,38.9316 C147.473,38.6464 147.331,38.4379 147.111,38.3063 C146.903,38.1746 146.557,38.1088 146.075,38.1088 L145.515,38.1088 L145.515,47.6367 Z" id="Shape" fill-opacity="0.9"></path>
            <path d="M153.977,49.6936 C153.528,49.6936 153.138,49.5784 152.809,49.3481 C152.491,49.1177 152.25,48.827 152.085,48.4759 C151.92,48.1248 151.838,47.7628 151.838,47.3898 C151.838,46.7974 151.953,46.2983 152.184,45.8924 C152.414,45.4865 152.716,45.1464 153.089,44.8721 C153.462,44.5978 153.879,44.362 154.339,44.1645 C154.8,43.967 155.261,43.786 155.722,43.6215 L155.722,42.7329 C155.722,42.5244 155.705,42.3434 155.672,42.1898 C155.639,42.0362 155.574,41.921 155.475,41.8443 C155.387,41.7565 155.255,41.7126 155.08,41.7126 C154.904,41.7126 154.767,41.751 154.669,41.8278 C154.581,41.8936 154.515,41.9978 154.471,42.1405 C154.438,42.2721 154.416,42.4202 154.405,42.5848 L154.356,43.243 L152.003,43.1443 C152.058,42.0253 152.348,41.197 152.875,40.6594 C153.412,40.1219 154.219,39.8531 155.294,39.8531 C156.259,39.8531 156.972,40.1219 157.433,40.6594 C157.894,41.186 158.124,41.8827 158.124,42.7493 L158.124,47.1759 C158.124,47.5489 158.13,47.8835 158.141,48.1797 C158.163,48.4649 158.185,48.7227 158.207,48.9531 C158.239,49.1725 158.267,49.3645 158.289,49.5291 L156.051,49.5291 C156.018,49.2877 155.979,49.0244 155.936,48.7392 C155.892,48.454 155.859,48.262 155.837,48.1632 C155.727,48.5582 155.519,48.9147 155.212,49.2329 C154.904,49.54 154.493,49.6936 153.977,49.6936 Z M154.882,47.9329 C155.003,47.9329 155.118,47.9054 155.228,47.8506 C155.338,47.7957 155.431,47.7244 155.508,47.6367 C155.596,47.5489 155.667,47.4666 155.722,47.3898 L155.722,44.7734 C155.491,44.916 155.277,45.0586 155.08,45.2012 C154.882,45.3329 154.712,45.481 154.57,45.6455 C154.427,45.8101 154.317,45.9911 154.241,46.1886 C154.164,46.386 154.125,46.6109 154.125,46.8632 C154.125,47.1924 154.191,47.4556 154.323,47.6531 C154.455,47.8396 154.641,47.9329 154.882,47.9329 Z" id="Shape" fill-opacity="0.9"></path>
            <path d="M162.533,49.6278 C161.875,49.6278 161.359,49.5291 160.986,49.3316 C160.613,49.1232 160.355,48.827 160.213,48.443 C160.07,48.059 159.999,47.5928 159.999,47.0443 L159.999,41.6468 L159.061,41.6468 L159.061,40.0177 L159.999,40.0177 L159.999,37.1379 L162.516,37.1379 L162.516,40.0177 L163.899,40.0177 L163.899,41.6468 L162.516,41.6468 L162.516,46.8139 C162.516,47.1101 162.588,47.324 162.73,47.4556 C162.884,47.5763 163.092,47.6367 163.356,47.6367 C163.487,47.6367 163.614,47.6312 163.734,47.6202 C163.855,47.5983 163.965,47.5818 164.063,47.5708 L164.063,49.5126 C163.91,49.5346 163.69,49.5565 163.405,49.5784 C163.12,49.6113 162.829,49.6278 162.533,49.6278 Z" id="Path" fill-opacity="0.9"></path>
            <path d="M167.235,49.6936 C166.785,49.6936 166.396,49.5784 166.067,49.3481 C165.749,49.1177 165.507,48.827 165.343,48.4759 C165.178,48.1248 165.096,47.7628 165.096,47.3898 C165.096,46.7974 165.211,46.2983 165.441,45.8924 C165.672,45.4865 165.974,45.1464 166.347,44.8721 C166.72,44.5978 167.136,44.362 167.597,44.1645 C168.058,43.967 168.519,43.786 168.979,43.6215 L168.979,42.7329 C168.979,42.5244 168.963,42.3434 168.93,42.1898 C168.897,42.0362 168.831,41.921 168.733,41.8443 C168.645,41.7565 168.513,41.7126 168.338,41.7126 C168.162,41.7126 168.025,41.751 167.926,41.8278 C167.839,41.8936 167.773,41.9978 167.729,42.1405 C167.696,42.2721 167.674,42.4202 167.663,42.5848 L167.614,43.243 L165.26,43.1443 C165.315,42.0253 165.606,41.197 166.133,40.6594 C166.67,40.1219 167.476,39.8531 168.552,39.8531 C169.517,39.8531 170.23,40.1219 170.691,40.6594 C171.152,41.186 171.382,41.8827 171.382,42.7493 L171.382,47.1759 C171.382,47.5489 171.387,47.8835 171.398,48.1797 C171.42,48.4649 171.442,48.7227 171.464,48.9531 C171.497,49.1725 171.525,49.3645 171.547,49.5291 L169.309,49.5291 C169.276,49.2877 169.237,49.0244 169.193,48.7392 C169.149,48.454 169.117,48.262 169.095,48.1632 C168.985,48.5582 168.776,48.9147 168.469,49.2329 C168.162,49.54 167.751,49.6936 167.235,49.6936 Z M168.14,47.9329 C168.261,47.9329 168.376,47.9054 168.486,47.8506 C168.595,47.7957 168.689,47.7244 168.766,47.6367 C168.853,47.5489 168.925,47.4666 168.979,47.3898 L168.979,44.7734 C168.749,44.916 168.535,45.0586 168.338,45.2012 C168.14,45.3329 167.97,45.481 167.828,45.6455 C167.685,45.8101 167.575,45.9911 167.498,46.1886 C167.422,46.386 167.383,46.6109 167.383,46.8632 C167.383,47.1924 167.449,47.4556 167.581,47.6531 C167.712,47.8396 167.899,47.9329 168.14,47.9329 Z" id="Shape" fill-opacity="0.9"></path>
            <path d="M173.14,49.5291 L173.14,36.2 L176.398,36.2 C177.528,36.2 178.406,36.3481 179.031,36.6443 C179.668,36.9295 180.117,37.3848 180.381,38.0101 C180.644,38.6244 180.776,39.4143 180.776,40.3797 L180.776,45.2341 C180.776,46.2215 180.644,47.0333 180.381,47.6696 C180.117,48.3059 179.673,48.7776 179.048,49.0848 C178.433,49.381 177.572,49.5291 176.464,49.5291 L173.14,49.5291 Z M175.855,47.6367 L176.431,47.6367 C176.936,47.6367 177.292,47.5599 177.501,47.4063 C177.72,47.2417 177.857,47.0059 177.912,46.6987 C177.967,46.3805 177.995,45.9911 177.995,45.5303 L177.995,40.0341 C177.995,39.5734 177.956,39.2059 177.879,38.9316 C177.814,38.6464 177.671,38.4379 177.452,38.3063 C177.243,38.1746 176.898,38.1088 176.415,38.1088 L175.855,38.1088 L175.855,47.6367 Z" id="Shape" fill-opacity="0.9"></path>
            <path d="M185.42,49.6936 C184.718,49.6936 184.131,49.5675 183.659,49.3151 C183.188,49.0519 182.831,48.6734 182.59,48.1797 C182.348,47.6751 182.228,47.0717 182.228,46.3696 L182.228,43.1772 C182.228,42.4531 182.348,41.8497 182.59,41.367 C182.831,40.8734 183.193,40.5004 183.676,40.2481 C184.159,39.9848 184.74,39.8531 185.42,39.8531 C186.144,39.8531 186.731,39.9848 187.181,40.2481 C187.631,40.5113 187.96,40.8953 188.168,41.4 C188.388,41.9046 188.497,42.5189 188.497,43.243 L188.497,44.905 L184.68,44.905 L184.68,46.7481 C184.68,47.0223 184.707,47.2472 184.762,47.4227 C184.828,47.5983 184.915,47.7244 185.025,47.8012 C185.135,47.867 185.272,47.9 185.437,47.9 C185.59,47.9 185.722,47.867 185.831,47.8012 C185.952,47.7244 186.04,47.6092 186.095,47.4556 C186.15,47.3021 186.177,47.0991 186.177,46.8468 L186.177,45.9417 L188.481,45.9417 L188.481,46.7316 C188.481,47.697 188.218,48.432 187.691,48.9367 C187.164,49.4413 186.407,49.6936 185.42,49.6936 Z M184.68,43.7202 L186.177,43.7202 L186.177,42.7822 C186.177,42.508 186.15,42.2886 186.095,42.124 C186.04,41.9485 185.952,41.8278 185.831,41.762 C185.722,41.6852 185.579,41.6468 185.404,41.6468 C185.239,41.6468 185.102,41.6852 184.992,41.762 C184.894,41.8388 184.817,41.9759 184.762,42.1734 C184.707,42.3599 184.68,42.6286 184.68,42.9797 L184.68,43.7202 Z" id="Shape" fill-opacity="0.9"></path>
            <polygon id="Path" fill-opacity="0.9" points="190.109 49.5291 190.109 36.2 192.594 36.2 192.594 49.5291"></polygon>
            <path d="M194.366,49.5291 L194.366,40.0177 L196.851,40.0177 L196.851,49.5291 L194.366,49.5291 Z M194.349,38.4544 L194.349,36.5949 L196.851,36.5949 L196.851,38.4544 L194.349,38.4544 Z" id="Shape" fill-opacity="0.9"></path>
            <path d="M136.294,39.467 C136.013,39.467 135.779,39.6545 135.708,39.9123 L130.158,39.8859 C130.061,39.7424 129.964,39.6047 129.859,39.467 L130.767,38.4037 L129.326,36.9626 L128.2535,37.8794 C127.7497,37.5015 127.2137,37.1881 126.6542,36.9421 L126.9325,35.5566 L124.9728,35 L124.4807,36.3211 C124.2112,36.283 123.9388,36.2625 123.6664,36.2508 L123.6664,37.689 C127.117,37.8413 129.888,40.6094 130.04,44.063 L134.964,44.063 C135.125,44.7279 136.18,44.5932 136.159,43.8989 C136.18,43.2047 135.125,43.07 134.964,43.7349 L131.52,43.7349 C131.505,43.565 131.487,43.398 131.464,43.2282 L132.735,42.7566 L132.477,41.8544 L133.799,41.8602 C133.957,42.5281 135.011,42.3963 134.994,41.702 C135.017,41.0078 133.963,40.8672 133.799,41.5321 L132.381,41.5263 L132.173,40.7969 L130.82,41.0664 C130.688,40.7735 130.535,40.4893 130.368,40.2111 L135.708,40.2374 C136.282,41.5526 137.718,39.6838 136.297,39.467 L136.294,39.467 Z" id="Path" fill-opacity="0.9"></path>
            <polygon id="Path" fill-opacity="0.9" points="123.0805 48.7673 122.2018 48.7673 122.2018 51.6965 123.0805 51.6965"></polygon>
            <polygon id="Path" fill-opacity="0.9" points="124.5451 48.7673 123.6664 48.7673 123.6664 51.6965 124.5451 51.6965"></polygon>
            <polygon id="Path" fill-opacity="0.9" points="124.539 36.4646 123.6602 36.4646 123.6602 39.1009 124.539 39.1009"></polygon>
            <polygon id="Path" fill-opacity="0.9" points="123.0805 36.4646 122.2018 36.4646 122.2018 39.1009 123.0805 39.1009"></polygon>
            <path d="M124.9728,35 L126.9325,35.5566 L126.6542,36.9421 C127.2137,37.1881 127.7497,37.5015 128.2535,37.8794 L129.326,36.9626 L130.767,38.4037 L129.859,39.467 C129.964,39.6047 130.061,39.7424 130.158,39.8859 L130.368,40.2111 C130.535,40.4893 130.688,40.7735 130.82,41.0664 L132.173,40.7969 L132.381,41.5263 L132.477,41.8544 L132.735,42.7566 L131.464,43.2282 C131.487,43.398 131.528,43.7642 131.543,43.9341 L131.549,43.9341 L131.546,43.937 C131.54,44.2182 131.525,44.4994 131.49,44.7806 L132.729,45.2405 L132.173,47.2002 L130.916,46.9483 C130.667,47.537 130.342,48.1024 129.95,48.6355 L130.767,49.5933 L129.326,51.0345 L128.3941,50.2407 C127.8639,50.6596 127.2927,50.9994 126.6952,51.2659 L126.9325,52.4435 L124.9728,53 L124.5598,51.8898 C124.2639,51.9338 123.9652,51.9572 123.6664,51.9689 L123.6664,50.3051 C127.117,50.1528 129.885,47.3847 130.037,43.9341 L130.036,43.9698 C129.838,40.5597 127.0859,37.84 123.6664,37.689 L123.6664,36.2508 C123.9388,36.2625 124.2112,36.283 124.4807,36.3211 L124.9728,35 Z" id="Path" fill-opacity="0.9"></path>
            <path d="M121.7624,35 L119.8028,35.5566 L120.0811,36.9421 C119.5216,37.1881 118.9855,37.5015 118.4817,37.8794 L117.4096,36.9626 L115.9684,38.4037 L116.8765,39.467 C116.771,39.6047 116.6744,39.7424 116.5777,39.8859 L116.3668,40.2111 C116.1998,40.4893 116.0475,40.7735 115.9157,41.0664 L114.5624,40.7969 L114.3544,41.5263 L114.2578,41.8544 L114,42.7566 L115.2713,43.2282 C115.2479,43.398 115.2071,43.7642 115.1925,43.9341 L115.1863,43.9341 L115.1893,43.937 C115.1951,44.2182 115.2098,44.4994 115.2449,44.7806 L114.0059,45.2405 L114.5624,47.2002 L115.8191,46.9483 C116.068,47.537 116.3932,48.1024 116.7857,48.6355 L115.9684,49.5933 L117.4096,51.0345 L118.3411,50.2407 C118.8713,50.6596 119.4425,50.9994 120.04,51.2659 L119.8028,52.4435 L121.7624,53 L122.1754,51.8898 C122.4713,51.9338 122.7701,51.9572 123.0688,51.9689 L123.0688,50.3051 C119.6182,50.1528 116.8501,47.3847 116.6978,43.9341 L116.6996,43.9698 C116.8972,40.5597 119.6493,37.84 123.0688,37.689 L123.0688,36.2508 C122.7964,36.2625 122.524,36.283 122.2545,36.3211 L121.7624,35 Z" id="Path" fill-opacity="0.9"></path>
            <path d="M128.4351,43.9004 C128.3121,37.1105 118.221,37.1105 118.1009,43.9004 C118.2239,50.6903 128.3151,50.6903 128.4351,43.9004 Z M127.0291,46.2907 C126.7772,46.1969 126.5048,46.1149 126.2119,46.0417 C126.3847,45.4646 126.4872,44.8319 126.5107,44.164 L127.7175,44.164 C127.6706,44.9432 127.4246,45.6697 127.0291,46.2907 Z M126.9764,41.4223 C127.407,42.0609 127.6677,42.8195 127.7175,43.6339 L126.5107,43.6339 C126.4872,42.9279 126.373,42.2601 126.1826,41.6566 C126.4667,41.5863 126.7333,41.5073 126.9764,41.4194 L126.9764,41.4223 Z M126.6308,40.9741 C126.4345,41.0386 126.2207,41.0972 125.998,41.1499 C125.8047,40.6841 125.5645,40.2682 125.2862,39.9255 C125.7989,40.1862 126.2558,40.5435 126.6308,40.9741 Z M124.6653,43.6339 C124.6594,43.1271 124.6272,42.5266 124.5657,41.9203 C124.9552,41.8851 125.3243,41.8324 125.6729,41.768 C125.8516,42.3304 125.96,42.9631 125.9834,43.6339 L124.6653,43.6339 Z M125.9834,44.1611 C125.9629,44.7938 125.8633,45.3885 125.7022,45.9274 C125.3478,45.8601 124.9728,45.8044 124.5774,45.7693 C124.633,45.201 124.6623,44.6415 124.6682,44.1611 L125.9863,44.1611 L125.9834,44.1611 Z M125.4825,41.2583 C125.1749,41.3139 124.8469,41.3608 124.4983,41.393 C124.3987,40.6841 124.2493,40.0134 124.0325,39.533 C124.6242,39.823 125.131,40.441 125.4825,41.2612 L125.4825,41.2583 Z M122.401,43.6309 C122.4098,43.007 122.442,42.4446 122.4947,41.9554 C122.9985,41.9847 123.5434,41.9847 124.0443,41.9554 C124.097,42.4446 124.1292,43.007 124.138,43.6309 L122.401,43.6309 Z M124.138,44.1582 C124.1321,44.7382 124.0999,45.2625 124.056,45.7282 C123.5463,45.699 122.9927,45.699 122.483,45.7282 C122.4361,45.2625 122.4068,44.7382 122.401,44.1582 L124.138,44.1582 Z M123.1421,39.4392 C123.227,39.4334 123.312,39.4334 123.3998,39.4392 C123.5814,39.6706 123.8216,40.3385 123.9827,41.4282 C123.5229,41.4545 123.022,41.4545 122.5621,41.4282 C122.7203,40.3385 122.9605,39.6706 123.1421,39.4392 Z M122.5064,39.53 C122.2897,40.0104 122.1373,40.6812 122.0407,41.3901 C121.695,41.3579 121.367,41.3139 121.0565,41.2553 C121.405,40.4352 121.9147,39.8171 122.5064,39.5271 L122.5064,39.53 Z M121.8737,43.6309 L120.5556,43.6309 C120.579,42.9601 120.6874,42.3274 120.8661,41.765 C121.2146,41.8295 121.5837,41.8822 121.9733,41.9173 C121.9089,42.5237 121.8796,43.1212 121.8737,43.6309 Z M121.9645,45.7663 C121.5691,45.8015 121.1941,45.8571 120.8368,45.9245 C120.6757,45.3885 120.5761,44.7909 120.5556,44.1582 L121.8737,44.1582 C121.8796,44.6356 121.9089,45.1951 121.9645,45.7663 Z M121.2527,39.9225 C120.9744,40.2682 120.7343,40.6812 120.5409,41.147 C120.3183,41.0942 120.1045,41.0356 119.9082,40.9712 C120.2832,40.5406 120.7401,40.1832 121.2527,39.9225 Z M119.5626,41.4194 C119.8086,41.5073 120.0752,41.5863 120.3593,41.6566 C120.1689,42.2571 120.0517,42.925 120.0312,43.6339 L118.8244,43.6339 C118.8713,42.8195 119.1349,42.0609 119.5626,41.4223 L119.5626,41.4194 Z M119.5098,46.2877 C119.1115,45.6667 118.8683,44.9403 118.8215,44.1611 L120.0283,44.1611 C120.0488,44.829 120.1543,45.4617 120.3271,46.0387 C120.0342,46.112 119.7618,46.194 119.5098,46.2877 Z M119.835,46.7388 C120.04,46.6685 120.2656,46.6041 120.5028,46.5455 C120.702,47.0522 120.9569,47.5004 121.2527,47.8695 C120.7079,47.5912 120.2246,47.2075 119.835,46.7388 Z M121.0125,46.4371 C121.3289,46.3785 121.6657,46.3287 122.0231,46.2965 C122.1227,47.0464 122.2779,47.7582 122.5035,48.262 C121.8884,47.9603 121.3611,47.3071 121.0096,46.4371 L121.0125,46.4371 Z M123.3998,48.3528 C123.3149,48.3587 123.227,48.3587 123.1421,48.3528 C122.9546,48.1156 122.7027,47.4125 122.5445,46.2584 C123.0132,46.2321 123.5287,46.2321 123.9945,46.2584 C123.8363,47.4125 123.5844,48.1156 123.3969,48.3528 L123.3998,48.3528 Z M124.0355,48.262 C124.264,47.7582 124.4192,47.0464 124.5188,46.2965 C124.8762,46.3317 125.213,46.3785 125.5294,46.4371 C125.1779,47.3042 124.6535,47.9574 124.0384,48.262 L124.0355,48.262 Z M125.2892,47.8724 C125.585,47.5033 125.8399,47.0552 126.0391,46.5484 C126.2763,46.607 126.5019,46.6714 126.7069,46.7418 C126.3173,47.2104 125.834,47.5942 125.2892,47.8724 Z" id="Shape" fill-opacity="0.9"></path>
            <g id="Group">
                <path d="M193.014,24.8579 C193.014,23.9194 193.35,23.2032 194.022,22.7092 C194.719,22.1906 195.571,21.9313 196.58,21.9313 C197.588,21.9313 198.405,22.1906 199.029,22.7092 C199.678,23.2032 200.002,23.9194 200.002,24.8579 C200.002,25.7964 199.642,26.525 198.921,27.0436 C198.225,27.5623 197.372,27.8216 196.364,27.8216 C195.355,27.8216 194.539,27.5623 193.914,27.0436 C193.314,26.525 193.014,25.7964 193.014,24.8579 Z M194.959,17.8932 C194.959,17.7203 194.983,17.5104 195.031,17.2634 L197.84,2.37082 C198.729,2.02506 199.702,1.85217 200.758,1.85217 C201.815,1.85217 202.619,2.19794 203.172,2.88947 C203.724,3.581 204,4.44541 204,5.48271 C204,6.49531 203.808,7.582 203.424,8.74278 C203.039,9.87887 202.607,11.0273 202.127,12.1881 C201.671,13.3489 201.238,14.5344 200.83,15.7445 C200.446,16.93 200.242,18.1525 200.218,19.4121 C199.666,20.0542 198.909,20.3753 197.949,20.3753 C196.988,20.3753 196.244,20.153 195.715,19.7085 C195.211,19.2392 194.959,18.6341 194.959,17.8932 Z" id="Shape"></path>
                <path d="M188.812,20.8571 C187.227,23.1046 185.666,24.8211 184.129,26.0065 C182.617,27.192 181.068,27.7848 179.483,27.7848 C177.922,27.7848 176.865,27.6242 176.313,27.3032 L176.313,19.153 C174.944,22.907 173.035,25.5126 170.586,26.9697 C169.697,27.5131 168.833,27.7848 167.992,27.7848 C166.383,27.7848 165.231,27.6242 164.534,27.3032 C164.366,21.6474 164.21,18.0416 164.066,16.4856 C163.922,14.905 163.79,13.6331 163.67,12.6699 C163.43,10.7435 162.901,9.3851 162.085,8.59478 C163.118,7.80446 164.354,7.4093 165.795,7.4093 C168.581,7.4093 170.166,9.18752 170.55,12.744 C170.646,13.5837 170.694,14.4481 170.694,15.3372 C170.694,16.6709 170.55,19.6593 170.262,24.3024 C170.838,24.0307 171.426,23.4133 172.027,22.4501 C172.651,21.4622 173.215,20.3014 173.72,18.9677 C174.848,15.8806 175.412,13.0033 175.412,10.336 C175.412,9.9161 175.352,9.48389 175.232,9.03934 C175.136,8.59478 175.028,8.31076 174.908,8.18727 C175.749,7.66863 176.805,7.4093 178.078,7.4093 C179.375,7.4093 180.323,7.86621 180.924,8.78001 C181.548,9.66913 181.944,10.941 182.112,12.5958 C182.304,14.6951 182.4,16.3745 182.4,17.6341 C182.4,19.3876 182.316,21.561 182.148,24.1542 C183.349,23.2651 184.442,21.3634 185.426,18.4491 C186.411,15.5348 186.903,13.0403 186.903,10.9657 C186.903,10.0519 186.831,9.32336 186.687,8.78001 C187.479,7.86621 188.56,7.4093 189.929,7.4093 C190.769,7.4093 191.49,7.64393 192.09,8.11318 C192.714,8.58244 193.026,9.26162 193.026,10.1507 C193.026,11.0151 192.894,11.9166 192.63,12.8551 C192.39,13.7936 192.066,14.7445 191.658,15.7077 C190.865,17.6341 189.917,19.3506 188.812,20.8571 Z" id="Path"></path>
                <path d="M157.358,20.783 C157.958,21.2029 158.259,21.8821 158.259,22.8206 C158.259,23.7344 158.031,24.4876 157.574,25.0804 C157.118,25.6731 156.518,26.1671 155.773,26.5622 C154.236,27.3773 152.639,27.7848 150.983,27.7848 C149.326,27.7848 148.005,27.5995 147.02,27.2291 C146.06,26.8586 145.255,26.3276 144.607,25.6361 C143.334,24.3271 142.698,22.4748 142.698,20.0791 C142.698,16.3498 143.682,13.3491 145.652,11.0769 C147.765,8.63183 150.658,7.4093 154.332,7.4093 C156.614,7.4093 158.319,7.90325 159.447,8.89115 C160.288,9.63208 160.708,10.6076 160.708,11.8178 C160.708,16.1646 157.058,18.338 149.758,18.338 C149.662,18.9801 149.614,19.5728 149.614,20.1162 C149.614,21.2523 149.854,22.0426 150.334,22.4871 C150.838,22.907 151.547,23.1169 152.459,23.1169 C153.372,23.1169 154.308,22.907 155.269,22.4871 C156.254,22.0426 156.95,21.4745 157.358,20.783 Z M150.01,16.745 C151.715,16.745 153.06,16.2016 154.044,15.1149 C155.029,14.0776 155.521,12.7316 155.521,11.0769 C155.521,10.5088 155.413,10.0766 155.197,9.78026 C155.005,9.4592 154.705,9.29866 154.296,9.29866 C153.888,9.29866 153.504,9.3851 153.144,9.55799 C152.808,9.70617 152.459,10.0519 152.099,10.5953 C151.211,11.8302 150.514,13.8801 150.01,16.745 Z" id="Shape"></path>
                <path d="M139.701,25.0062 C138.957,26.8586 137.396,27.7847 135.019,27.7847 C133.794,27.7847 132.797,27.3525 132.029,26.4881 C131.38,25.7225 131.056,24.9569 131.056,24.1912 C131.056,22.1907 131.501,19.2394 132.389,15.3372 L133.722,8.15018 L141.034,7.40926 L138.837,19.1159 C138.428,20.9435 138.224,22.1784 138.224,22.8205 C138.224,24.2283 138.717,24.9568 139.701,25.0062 Z M134.37,3.00075 C134.37,2.03755 134.754,1.29662 135.523,0.777971 C136.315,0.259324 137.276,0 138.404,0 C139.533,0 140.434,0.259324 141.106,0.777971 C141.802,1.29662 142.151,2.03755 142.151,3.00075 C142.151,3.96395 141.766,4.69253 140.998,5.18648 C140.253,5.68043 139.317,5.92741 138.188,5.92741 C137.06,5.92741 136.135,5.68043 135.415,5.18648 C134.718,4.69253 134.37,3.96395 134.37,3.00075 Z" id="Shape"></path>
                <path d="M109.901,4.07495 C110.598,2.5931 111.907,1.85217 113.828,1.85217 C115.773,1.85217 117.19,2.43256 118.078,3.59335 C118.991,4.72943 119.447,6.61879 119.447,9.26143 L119.447,22.487 L128.2,2.63014 L132.486,2.63014 L121.284,27.0436 L112.855,27.0436 L111.774,9.26143 C111.702,7.95246 111.486,6.85342 111.126,5.96431 C110.79,5.0752 110.382,4.44541 109.901,4.07495 Z" id="Path"></path>
                <path d="M97.1778,21.0424 C96.4093,20.4743 96.0251,19.6469 96.0251,18.5602 C96.0251,17.9675 96.1692,17.4365 96.4574,16.9673 C96.7455,16.4733 97.1778,16.1893 97.7541,16.1152 L104.85,16.1152 C105.643,16.1152 106.159,15.8682 106.399,15.3743 C106.783,15.5965 107.059,15.9423 107.227,16.4116 C107.396,16.8808 107.48,17.3624 107.48,17.8564 C107.48,18.3503 107.287,18.8443 106.903,19.3382 C106.543,19.8075 106.087,20.0668 105.534,20.1162 L98.9428,20.1162 C98.4385,20.1162 98.0663,20.2026 97.8261,20.3755 C97.586,20.5237 97.3699,20.746 97.1778,21.0424 Z" id="Path"></path>
                <path d="M75.0571,25.9324 C74.5047,25.2903 74.0965,24.4629 73.8324,23.4503 C73.5922,22.4377 73.4722,21.1041 73.4722,19.4493 C73.4722,17.7946 73.7483,16.214 74.3006,14.7074 C74.8529,13.2009 75.6334,11.9043 76.642,10.8176 C78.7071,8.54539 81.4447,7.4093 84.8546,7.4093 C86.0793,7.4093 87.1359,7.61923 88.0244,8.03909 L94.1839,7.4093 L91.5183,21.8574 C91.4463,22.1537 91.4103,22.5736 91.4103,23.1169 C91.4103,23.6603 91.5664,24.1048 91.8785,24.4506 C92.2147,24.7964 92.623,24.9939 93.1032,25.0433 C92.8631,25.8831 92.2988,26.5499 91.4103,27.0438 C90.5458,27.5378 89.6213,27.7848 88.6367,27.7848 C87.6522,27.7848 86.8237,27.5872 86.1513,27.192 C85.503,26.8216 85.0827,26.3153 84.8906,25.6731 C84.5064,26.2906 83.9061,26.7969 83.0896,27.192 C82.2731,27.5872 81.3126,27.7848 80.208,27.7848 C79.1274,27.7848 78.1428,27.6366 77.2543,27.3402 C76.3658,27.0438 75.6334,26.5746 75.0571,25.9324 Z M82.6573,10.8917 C82.3932,11.3362 82.1411,11.9413 81.9009,12.7069 C81.6608,13.4478 81.3366,14.8309 80.9284,16.8561 C80.5442,18.8566 80.352,20.5731 80.352,22.0055 C80.352,23.438 80.4601,24.3642 80.6762,24.784 C80.8924,25.2039 81.1925,25.4138 81.5767,25.4138 C82.3452,25.4138 83.0055,25.0433 83.5579,24.3024 C84.1342,23.5368 84.5304,22.4871 84.7465,21.1535 L86.6556,10.2989 C86.1513,9.85436 85.599,9.63208 84.9987,9.63208 C84.4223,9.63208 83.9541,9.73087 83.5939,9.92845 C83.2577,10.126 82.9455,10.4471 82.6573,10.8917 Z" id="Shape"></path>
                <path d="M54.5027,11.5585 C55.3191,10.373 56.3397,9.3851 57.5644,8.59478 C58.8131,7.80446 60.1939,7.4093 61.7067,7.4093 C63.2196,7.4093 64.3362,7.65628 65.0566,8.15023 L72.1166,7.4093 L69.6672,21.6351 C68.8267,26.4758 67.518,29.847 65.741,31.7487 C64.036,33.5516 61.5266,34.4531 58.2128,34.4531 C55.6913,34.4531 53.7102,34.0456 52.2694,33.2306 C50.8286,32.4156 50.1082,31.3289 50.1082,29.9705 C50.1082,28.9579 50.4804,28.1552 51.2248,27.5625 C51.9692,26.9944 52.9178,26.7104 54.0704,26.7104 C55.079,26.7104 55.9675,26.945 56.7359,27.4143 C57.1922,27.6613 57.5284,27.9576 57.7445,28.3034 C57.1922,28.7974 56.916,29.4518 56.916,30.2669 C56.916,31.3289 57.3963,31.8598 58.3568,31.8598 C59.9657,31.8598 61.2265,29.9087 62.139,26.0065 C62.4031,24.9445 62.6433,23.8826 62.8594,22.8206 C61.7788,24.1789 60.0138,24.8581 57.5644,24.8581 C55.8594,24.8581 54.5147,24.4382 53.5301,23.5985 C52.5456,22.7588 52.0533,21.3511 52.0533,19.3753 C52.0533,18.1404 52.2574,16.8314 52.6656,15.4483 C53.0739,14.0406 53.6862,12.744 54.5027,11.5585 Z M59.1853,19.4864 C59.1853,21.1658 59.6055,22.0055 60.446,22.0055 C61.0223,22.0055 61.5867,21.6845 62.139,21.0423 C62.5712,20.5237 62.8714,19.8816 63.0395,19.1159 L64.8765,9.59503 C64.7564,9.57034 64.6364,9.53329 64.5163,9.48389 C64.2762,9.3851 64,9.33571 63.6878,9.33571 C62.223,9.33571 61.0584,10.5706 60.1939,13.0403 C59.5215,14.9667 59.1853,17.1154 59.1853,19.4864 Z" id="Shape"></path>
                <path d="M47.3625,20.783 C47.9629,21.2029 48.263,21.8821 48.263,22.8206 C48.263,23.7344 48.0349,24.4876 47.5787,25.0804 C47.1224,25.6731 46.5221,26.1671 45.7776,26.5622 C44.2408,27.3773 42.6439,27.7848 40.9869,27.7848 C39.33,27.7848 38.0093,27.5995 37.0247,27.2291 C36.0642,26.8586 35.2597,26.3276 34.6113,25.6361 C33.3386,24.3271 32.7023,22.4748 32.7023,20.0791 C32.7023,16.3498 33.6868,13.3491 35.6559,11.0769 C37.7691,8.63183 40.6628,7.4093 44.3368,7.4093 C46.6181,7.4093 48.3231,7.90325 49.4517,8.89115 C50.2922,9.63208 50.7124,10.6076 50.7124,11.8178 C50.7124,16.1646 47.0624,18.338 39.7623,18.338 C39.6662,18.9801 39.6182,19.5728 39.6182,20.1162 C39.6182,21.2523 39.8583,22.0426 40.3386,22.4871 C40.8429,22.907 41.5513,23.1169 42.4638,23.1169 C43.3763,23.1169 44.3128,22.907 45.2734,22.4871 C46.2579,22.0426 46.9543,21.4745 47.3625,20.783 Z M40.0144,16.745 C41.7194,16.745 43.0641,16.2016 44.0487,15.1149 C45.0332,14.0776 45.5255,12.7316 45.5255,11.0769 C45.5255,10.5088 45.4174,10.0766 45.2013,9.78026 C45.0092,9.4592 44.709,9.29866 44.3008,9.29866 C43.8926,9.29866 43.5084,9.3851 43.1482,9.55799 C42.812,9.70617 42.4638,10.0519 42.1036,10.5953 C41.2151,11.8302 40.5187,13.8801 40.0144,16.745 Z" id="Shape"></path>
                <path d="M0,27.0438 L6.51968,2.59326 L14.0479,2.59326 L15.7049,16.5597 L22.4046,2.59326 L28.7082,2.59326 L29.3566,20.8941 C29.4526,23.3145 30.077,24.8951 31.2296,25.636 C30.9655,26.13 30.4492,26.6116 29.6808,27.0809 C28.9123,27.5501 28.0118,27.7847 26.9792,27.7847 C25.9707,27.7847 25.1662,27.6366 24.5659,27.3402 C23.9655,27.0438 23.4973,26.6486 23.1611,26.1547 C22.5607,25.2656 22.2606,23.969 22.2606,22.2648 L22.2606,10.8175 L15.1646,27.0438 L10.698,27.0438 L8.17661,10.41 L4.14234,27.0438 L0,27.0438 Z" id="Path"></path>
            </g>
        </g>
    </g>
</svg>