<svg width="146" height="30" viewBox="0 0 146 30" fill="none" xmlns="http://www.w3.org/2000/svg">
<path d="M49.5123 6.06396C51.2723 6.06396 52.8163 6.40796 54.1443 7.09596C55.4883 7.78396 56.5203 8.76797 57.2403 10.048C57.9763 11.312 58.3443 12.784 58.3443 14.464C58.3443 16.144 57.9763 17.616 57.2403 18.88C56.5203 20.128 55.4883 21.096 54.1443 21.784C52.8163 22.472 51.2723 22.816 49.5123 22.816H43.6562V6.06396H49.5123ZM49.3923 19.96C51.1523 19.96 52.5123 19.48 53.4723 18.52C54.4323 17.56 54.9123 16.208 54.9123 14.464C54.9123 12.72 54.4323 11.36 53.4723 10.384C52.5123 9.39196 51.1523 8.89596 49.3923 8.89596H47.0163V19.96H49.3923Z" fill="#4B4B4B"/>
<path d="M59.9951 16.12C59.9951 14.776 60.2591 13.584 60.7871 12.544C61.3311 11.504 62.0591 10.704 62.9711 10.144C63.8991 9.58396 64.9311 9.30396 66.0671 9.30396C67.0591 9.30396 67.9231 9.50396 68.6591 9.90396C69.4111 10.304 70.0111 10.808 70.4591 11.416V9.51996H73.8431V22.816H70.4591V20.872C70.0271 21.496 69.4271 22.016 68.6591 22.432C67.9071 22.832 67.0351 23.032 66.0431 23.032C64.9231 23.032 63.8991 22.744 62.9711 22.168C62.0591 21.592 61.3311 20.784 60.7871 19.744C60.2591 18.688 59.9951 17.48 59.9951 16.12ZM70.4591 16.168C70.4591 15.352 70.2991 14.656 69.9791 14.08C69.6591 13.488 69.2271 13.04 68.6831 12.736C68.1391 12.416 67.5551 12.256 66.9311 12.256C66.3071 12.256 65.7311 12.408 65.2031 12.712C64.6751 13.016 64.2431 13.464 63.9071 14.056C63.5871 14.632 63.4271 15.32 63.4271 16.12C63.4271 16.92 63.5871 17.624 63.9071 18.232C64.2431 18.824 64.6751 19.28 65.2031 19.6C65.7471 19.92 66.3231 20.08 66.9311 20.08C67.5551 20.08 68.1391 19.928 68.6831 19.624C69.2271 19.304 69.6591 18.856 69.9791 18.28C70.2991 17.688 70.4591 16.984 70.4591 16.168Z" fill="#4B4B4B"/>
<path d="M81.0364 12.2802V18.7122C81.0364 19.1602 81.1404 19.4882 81.3484 19.6962C81.5724 19.8882 81.9404 19.9842 82.4524 19.9842H84.0124V22.8162H81.9004C79.0684 22.8162 77.6524 21.4402 77.6524 18.6882V12.2802H76.0684V9.52018H77.6524V6.23218H81.0364V9.52018H84.0124V12.2802H81.0364Z" fill="#4B4B4B"/>
<path d="M85.5654 16.12C85.5654 14.776 85.8294 13.584 86.3574 12.544C86.9014 11.504 87.6294 10.704 88.5414 10.144C89.4694 9.58396 90.5014 9.30396 91.6374 9.30396C92.6294 9.30396 93.4934 9.50396 94.2294 9.90396C94.9814 10.304 95.5814 10.808 96.0294 11.416V9.51996H99.4134V22.816H96.0294V20.872C95.5974 21.496 94.9974 22.016 94.2294 22.432C93.4774 22.832 92.6054 23.032 91.6134 23.032C90.4934 23.032 89.4694 22.744 88.5414 22.168C87.6294 21.592 86.9014 20.784 86.3574 19.744C85.8294 18.688 85.5654 17.48 85.5654 16.12ZM96.0294 16.168C96.0294 15.352 95.8694 14.656 95.5494 14.08C95.2294 13.488 94.7974 13.04 94.2534 12.736C93.7094 12.416 93.1254 12.256 92.5014 12.256C91.8774 12.256 91.3014 12.408 90.7734 12.712C90.2454 13.016 89.8134 13.464 89.4774 14.056C89.1574 14.632 88.9974 15.32 88.9974 16.12C88.9974 16.92 89.1574 17.624 89.4774 18.232C89.8134 18.824 90.2454 19.28 90.7734 19.6C91.3174 19.92 91.8934 20.08 92.5014 20.08C93.1254 20.08 93.7094 19.928 94.2534 19.624C94.7974 19.304 95.2294 18.856 95.5494 18.28C95.8694 17.688 96.0294 16.984 96.0294 16.168Z" fill="#4B4B4B"/>
<path d="M108.551 6.06396C110.311 6.06396 111.855 6.40796 113.183 7.09596C114.527 7.78396 115.559 8.76797 116.279 10.048C117.015 11.312 117.383 12.784 117.383 14.464C117.383 16.144 117.015 17.616 116.279 18.88C115.559 20.128 114.527 21.096 113.183 21.784C111.855 22.472 110.311 22.816 108.551 22.816H102.695V6.06396H108.551ZM108.431 19.96C110.191 19.96 111.551 19.48 112.511 18.52C113.471 17.56 113.951 16.208 113.951 14.464C113.951 12.72 113.471 11.36 112.511 10.384C111.551 9.39196 110.191 8.89596 108.431 8.89596H106.055V19.96H108.431Z" fill="#4B4B4B"/>
<path d="M132.258 15.88C132.258 16.36 132.226 16.792 132.162 17.176H122.442C122.522 18.136 122.858 18.888 123.45 19.432C124.042 19.976 124.77 20.248 125.634 20.248C126.882 20.248 127.77 19.712 128.298 18.64H131.922C131.538 19.92 130.802 20.976 129.714 21.808C128.626 22.624 127.29 23.032 125.706 23.032C124.426 23.032 123.274 22.752 122.25 22.192C121.242 21.616 120.45 20.808 119.874 19.768C119.314 18.728 119.034 17.528 119.034 16.168C119.034 14.792 119.314 13.584 119.874 12.544C120.434 11.504 121.218 10.704 122.226 10.144C123.234 9.58396 124.394 9.30396 125.706 9.30396C126.97 9.30396 128.098 9.57596 129.09 10.12C130.098 10.664 130.874 11.44 131.418 12.448C131.978 13.44 132.258 14.584 132.258 15.88ZM128.778 14.92C128.762 14.056 128.45 13.368 127.842 12.856C127.234 12.328 126.49 12.064 125.61 12.064C124.778 12.064 124.074 12.32 123.498 12.832C122.938 13.328 122.594 14.024 122.466 14.92H128.778Z" fill="#4B4B4B"/>
<path d="M138.071 5.05603V22.816H134.711V5.05603H138.071Z" fill="#4B4B4B"/>
<path d="M143.094 7.936C142.502 7.936 142.006 7.752 141.606 7.384C141.222 7 141.03 6.528 141.03 5.968C141.03 5.408 141.222 4.944 141.606 4.576C142.006 4.192 142.502 4 143.094 4C143.686 4 144.174 4.192 144.558 4.576C144.958 4.944 145.158 5.408 145.158 5.968C145.158 6.528 144.958 7 144.558 7.384C144.174 7.752 143.686 7.936 143.094 7.936ZM144.75 9.52V22.816H141.39V9.52H144.75Z" fill="#4B4B4B"/>
<mask id="mask0_7590_7319" style="mask-type:luminance" maskUnits="userSpaceOnUse" x="0" y="0" width="39" height="30">
<path d="M38.5 0H0V30H38.5V0Z" fill="white"/>
</mask>
<g mask="url(#mask0_7590_7319)">
<path d="M37.1567 7.44508C36.6881 7.44508 36.2975 7.75753 36.1803 8.18714L26.9289 8.14321C26.7677 7.90399 26.6067 7.67453 26.4309 7.44508L27.9444 5.6729L25.5424 3.27095L23.7556 4.79902C22.9159 4.16924 22.0225 3.64687 21.09 3.23678L21.5538 0.927583L18.2877 0L17.4676 2.20179C17.0184 2.13832 16.5644 2.10415 16.1104 2.08462V4.48169C21.8614 4.73556 26.4798 9.34906 26.7336 15.105H34.9403C35.2088 16.2132 36.9662 15.9886 36.9321 14.8316C36.9662 13.6745 35.2088 13.45 34.9403 14.5582H29.199C29.1746 14.275 29.1453 13.9967 29.1063 13.7136L31.2251 12.9276L30.7955 11.4239L32.9973 11.4337C33.2609 12.5468 35.0184 12.3271 34.989 11.1701C35.0282 10.013 33.2706 9.77868 32.9973 10.8869L30.6344 10.8771L30.2877 9.66151L28.0322 10.1107C27.8126 9.62246 27.5587 9.1489 27.2804 8.68511L36.1803 8.72905C37.1371 10.9211 39.5294 7.80635 37.1616 7.44508H37.1567Z" fill="#4B4B4B"/>
<path d="M15.1346 22.9456H13.6699V27.8276H15.1346V22.9456Z" fill="#4B4B4B"/>
<path d="M17.575 22.9456H16.1104V27.8276H17.575V22.9456Z" fill="#4B4B4B"/>
<path d="M17.5649 2.44101H16.1003V6.83483H17.5649V2.44101Z" fill="#4B4B4B"/>
<path d="M15.1346 2.44092H13.6699V6.83474H15.1346V2.44092Z" fill="#4B4B4B"/>
<path d="M18.2877 0L21.5538 0.927583L21.09 3.23678C22.0225 3.64687 22.9159 4.16924 23.7556 4.79902L25.5424 3.27095L27.9444 5.6729L26.4309 7.44508C26.6067 7.67453 26.7677 7.90399 26.9289 8.14321L27.2804 8.68511C27.5587 9.1489 27.8126 9.62246 28.0322 10.1107L30.2877 9.66151L30.6344 10.8771L30.7955 11.4239L31.2251 12.9276L29.1063 13.7136C29.1453 13.9967 29.2132 14.607 29.2376 14.8902H29.2479L29.243 14.895C29.2332 15.3637 29.2088 15.8324 29.1502 16.3011L31.2153 17.0675L30.2877 20.3336L28.1934 19.9138C27.7784 20.895 27.2365 21.8373 26.5823 22.7258L27.9444 24.3222L25.5424 26.7242L23.9899 25.4011C23.1063 26.0993 22.1543 26.6656 21.1584 27.1098L21.5538 29.0724L18.2877 30L17.5994 28.1497C17.1063 28.2229 16.6083 28.262 16.1104 28.2815V25.5085C21.8614 25.2547 26.4749 20.6412 26.7287 14.8902L26.7257 14.9496C26.3964 9.26624 21.8095 4.73327 16.1104 4.48169V2.08462C16.5644 2.10415 17.0184 2.13832 17.4676 2.20179L18.2877 0Z" fill="#4B4B4B"/>
<path d="M12.9373 0L9.67128 0.927583L10.1351 3.23678C9.2026 3.64687 8.30919 4.16924 7.46949 4.79902L5.68267 3.27095L3.28071 5.6729L4.79414 7.44508C4.61839 7.67453 4.45728 7.90399 4.29617 8.14321L3.94467 8.68511C3.66639 9.1489 3.41253 9.62246 3.19284 10.1107L0.937347 9.66151L0.590724 10.8771L0.429616 11.4239L0 12.9276L2.11879 13.7136C2.07974 13.9967 2.01188 14.607 1.98747 14.8902H1.97722L1.9821 14.895C1.99186 15.3637 2.01627 15.8324 2.07486 16.3011L0.00976371 17.0675L0.937347 20.3336L3.03173 19.9138C3.4467 20.895 3.98861 21.8373 4.6428 22.7258L3.28071 24.3222L5.68267 26.7242L7.23515 25.4011C8.11879 26.0993 9.07079 26.6656 10.0667 27.1098L9.67128 29.0724L12.9373 30L13.6257 28.1497C14.1188 28.2229 14.6167 28.262 15.1147 28.2815V25.5085C9.36371 25.2547 4.7502 20.6412 4.49634 14.8902L4.49938 14.9496C4.82867 9.26624 9.41555 4.73327 15.1147 4.48169V2.08462C14.6607 2.10415 14.2067 2.13832 13.7575 2.20179L12.9373 0Z" fill="#4B4B4B"/>
<path d="M24.0587 14.834C23.8537 3.51749 7.03512 3.51749 6.83496 14.834C7.04 26.1505 23.8585 26.1505 24.0587 14.834ZM21.7153 18.8177C21.2955 18.6615 20.8414 18.5248 20.3532 18.4028C20.6413 17.441 20.8122 16.3865 20.8512 15.2734H22.8626C22.7845 16.572 22.3744 17.7827 21.7153 18.8177ZM21.6275 10.7038C22.3451 11.7681 22.7796 13.0325 22.8626 14.3897H20.8512C20.8122 13.2132 20.6218 12.1001 20.3044 11.0944C20.778 10.9772 21.2222 10.8454 21.6275 10.6989V10.7038ZM21.0514 9.95688C20.7243 10.0643 20.3679 10.1619 19.9969 10.2498C19.6746 9.47356 19.2743 8.78031 18.8105 8.20911C19.6649 8.64361 20.4265 9.23922 21.0514 9.95688ZM17.7755 14.3897C17.7658 13.5452 17.7121 12.5443 17.6096 11.5338C18.2589 11.4752 18.874 11.3873 19.455 11.2799C19.7528 12.2172 19.9334 13.2718 19.9725 14.3897H17.7755ZM19.9725 15.2685C19.9383 16.323 19.7723 17.3141 19.5038 18.2124C18.9131 18.1001 18.2882 18.0073 17.6291 17.9487C17.7218 17.0016 17.7707 16.0692 17.7804 15.2685H19.9773H19.9725ZM19.1376 10.4304C18.625 10.5232 18.0782 10.6013 17.4973 10.655C17.3313 9.47356 17.0823 8.35557 16.721 7.55492C17.7072 8.03824 18.5518 9.06835 19.1376 10.4353V10.4304ZM14.0017 14.3849C14.0164 13.345 14.0701 12.4076 14.158 11.5924C14.9977 11.6412 15.9057 11.6412 16.7406 11.5924C16.8284 12.4076 16.8821 13.345 16.8968 14.3849H14.0017ZM16.8968 15.2636C16.887 16.2303 16.8333 17.1041 16.7601 17.8804C15.9106 17.8316 14.9879 17.8316 14.1384 17.8804C14.0603 17.1041 14.0115 16.2303 14.0017 15.2636H16.8968ZM15.2369 7.3987C15.3785 7.38893 15.52 7.38893 15.6665 7.3987C15.9692 7.78438 16.3695 8.89748 16.638 10.7136C15.8716 10.7575 15.0367 10.7575 14.2703 10.7136C14.5339 8.89748 14.9342 7.78438 15.2369 7.3987ZM14.1775 7.55004C13.8162 8.35069 13.5624 9.46867 13.4013 10.6501C12.8252 10.5964 12.2784 10.5232 11.7609 10.4255C12.3419 9.05858 13.1913 8.02848 14.1775 7.54516V7.55004ZM13.123 14.3849H10.9261C10.9651 13.2669 11.1458 12.2124 11.4436 11.275C12.0245 11.3824 12.6397 11.4703 13.289 11.5289C13.1816 12.5395 13.1327 13.5354 13.123 14.3849ZM13.2743 17.9439C12.6152 18.0024 11.9904 18.0952 11.3947 18.2075C11.1262 17.3141 10.9602 16.3181 10.9261 15.2636H13.123C13.1327 16.0594 13.1816 16.9919 13.2743 17.9439ZM12.088 8.20423C11.6242 8.78031 11.2239 9.46867 10.9017 10.2449C10.5306 10.157 10.1742 10.0594 9.84716 9.95199C10.472 9.23434 11.2336 8.63873 12.088 8.20423ZM9.27109 10.6989C9.68118 10.8454 10.1254 10.9772 10.599 11.0944C10.2816 12.0952 10.0864 13.2083 10.0522 14.3897H8.04082C8.11893 13.0325 8.55831 11.7681 9.27109 10.7038V10.6989ZM9.18321 18.8129C8.51926 17.7779 8.11405 16.5671 8.03594 15.2685H10.0473C10.0815 16.3816 10.2572 17.4361 10.5453 18.3979C10.0571 18.5199 9.60306 18.6566 9.18321 18.8129ZM9.72511 19.5647C10.0668 19.4475 10.4428 19.3401 10.8382 19.2425C11.1702 20.0871 11.5949 20.834 12.088 21.4491C11.1799 20.9854 10.3744 20.3458 9.72511 19.5647ZM11.6877 19.0618C12.2149 18.9642 12.7764 18.8812 13.372 18.8275C13.538 20.0773 13.7967 21.2636 14.1726 22.1033C13.1474 21.6005 12.2686 20.5118 11.6828 19.0618H11.6877ZM15.6665 22.2547C15.5249 22.2644 15.3785 22.2644 15.2369 22.2547C14.9244 21.8592 14.5046 20.6876 14.241 18.764C15.0221 18.7201 15.8813 18.7201 16.6576 18.764C16.3939 20.6876 15.9741 21.8592 15.6616 22.2547H15.6665ZM16.7259 22.1033C17.1067 21.2636 17.3655 20.0773 17.5314 18.8275C18.127 18.8861 18.6885 18.9642 19.2157 19.0618C18.6299 20.5069 17.756 21.5956 16.7308 22.1033H16.7259ZM18.8154 21.454C19.3085 20.8389 19.7332 20.0919 20.0652 19.2474C20.4607 19.345 20.8366 19.4524 21.1783 19.5696C20.529 20.3507 19.7235 20.9902 18.8154 21.454Z" fill="#4B4B4B"/>
</g>
</svg>
